<mxfile host="65bd71144e">
    <diagram id="IBqlmEI-JZGWlcK9lcBW" name="Page-1">
        <mxGraphModel dx="1289" dy="662" grid="1" gridSize="10" guides="1" tooltips="1" connect="1" arrows="1" fold="1" page="1" pageScale="1" pageWidth="850" pageHeight="1100" math="0" shadow="0">
            <root>
                <mxCell id="0"/>
                <mxCell id="1" parent="0"/>
                <mxCell id="15" value="Cross-Functional Flowchart" style="shape=table;childLayout=tableLayout;startSize=40;collapsible=0;recursiveResize=0;expand=0;fontStyle=1;" vertex="1" parent="1">
                    <mxGeometry width="850" height="1100" as="geometry"/>
                </mxCell>
                <mxCell id="16" value="" style="shape=tableRow;horizontal=0;startSize=40;swimlaneHead=0;swimlaneBody=0;top=0;left=0;bottom=0;right=0;dropTarget=0;fillColor=none;collapsible=0;recursiveResize=0;expand=0;fontStyle=1;" vertex="1" parent="15">
                    <mxGeometry y="40" width="850" height="352" as="geometry"/>
                </mxCell>
                <mxCell id="17" value="ساعت 1" style="swimlane;swimlaneHead=0;swimlaneBody=0;fontStyle=0;connectable=0;fillColor=none;startSize=40;collapsible=0;recursiveResize=0;expand=0;fontStyle=1;" vertex="1" parent="16">
                    <mxGeometry x="40" width="271" height="352" as="geometry">
                        <mxRectangle width="271" height="352" as="alternateBounds"/>
                    </mxGeometry>
                </mxCell>
                <mxCell id="163" value="Assets" style="childLayout=tableLayout;recursiveResize=0;strokeColor=#98bf21;fillColor=#A7C942;shadow=1;" vertex="1" parent="17">
                    <mxGeometry y="40" width="270" height="310" as="geometry"/>
                </mxCell>
                <mxCell id="164" style="shape=tableRow;horizontal=0;startSize=0;swimlaneHead=0;swimlaneBody=0;top=0;left=0;bottom=0;right=0;dropTarget=0;collapsible=0;recursiveResize=0;expand=0;fontStyle=0;strokeColor=inherit;fillColor=#ffffff;" vertex="1" parent="163">
                    <mxGeometry width="270" height="36" as="geometry"/>
                </mxCell>
                <mxCell id="165" value="درس" style="connectable=0;recursiveResize=0;strokeColor=inherit;fillColor=#A7C942;align=center;fontStyle=1;fontColor=#FFFFFF;html=1;" vertex="1" parent="164">
                    <mxGeometry width="68" height="36" as="geometry">
                        <mxRectangle width="68" height="36" as="alternateBounds"/>
                    </mxGeometry>
                </mxCell>
                <mxCell id="166" value="استاد" style="connectable=0;recursiveResize=0;strokeColor=inherit;fillColor=#A7C942;align=center;fontStyle=1;fontColor=#FFFFFF;html=1;" vertex="1" parent="164">
                    <mxGeometry x="68" width="67" height="36" as="geometry">
                        <mxRectangle width="67" height="36" as="alternateBounds"/>
                    </mxGeometry>
                </mxCell>
                <mxCell id="167" value="گروه درسی" style="connectable=0;recursiveResize=0;strokeColor=inherit;fillColor=#A7C942;align=center;fontStyle=1;fontColor=#FFFFFF;html=1;" vertex="1" parent="164">
                    <mxGeometry x="135" width="68" height="36" as="geometry">
                        <mxRectangle width="68" height="36" as="alternateBounds"/>
                    </mxGeometry>
                </mxCell>
                <mxCell id="250" value="کلاس" style="connectable=0;recursiveResize=0;strokeColor=inherit;fillColor=#A7C942;align=center;fontStyle=1;fontColor=#FFFFFF;html=1;" vertex="1" parent="164">
                    <mxGeometry x="203" width="67" height="36" as="geometry">
                        <mxRectangle width="67" height="36" as="alternateBounds"/>
                    </mxGeometry>
                </mxCell>
                <mxCell id="168" value="" style="shape=tableRow;horizontal=0;startSize=0;swimlaneHead=0;swimlaneBody=0;top=0;left=0;bottom=0;right=0;dropTarget=0;collapsible=0;recursiveResize=0;expand=0;fontStyle=0;strokeColor=inherit;fillColor=#ffffff;" vertex="1" parent="163">
                    <mxGeometry y="36" width="270" height="35" as="geometry"/>
                </mxCell>
                <mxCell id="169" value="Value 1" style="connectable=0;recursiveResize=0;strokeColor=inherit;fillColor=inherit;align=center;whiteSpace=wrap;html=1;" vertex="1" parent="168">
                    <mxGeometry width="68" height="35" as="geometry">
                        <mxRectangle width="68" height="35" as="alternateBounds"/>
                    </mxGeometry>
                </mxCell>
                <mxCell id="170" value="Value 2" style="connectable=0;recursiveResize=0;strokeColor=inherit;fillColor=inherit;align=center;whiteSpace=wrap;html=1;" vertex="1" parent="168">
                    <mxGeometry x="68" width="67" height="35" as="geometry">
                        <mxRectangle width="67" height="35" as="alternateBounds"/>
                    </mxGeometry>
                </mxCell>
                <mxCell id="171" value="Value 3" style="connectable=0;recursiveResize=0;strokeColor=inherit;fillColor=inherit;align=center;whiteSpace=wrap;html=1;" vertex="1" parent="168">
                    <mxGeometry x="135" width="68" height="35" as="geometry">
                        <mxRectangle width="68" height="35" as="alternateBounds"/>
                    </mxGeometry>
                </mxCell>
                <mxCell id="251" style="connectable=0;recursiveResize=0;strokeColor=inherit;fillColor=inherit;align=center;whiteSpace=wrap;html=1;" vertex="1" parent="168">
                    <mxGeometry x="203" width="67" height="35" as="geometry">
                        <mxRectangle width="67" height="35" as="alternateBounds"/>
                    </mxGeometry>
                </mxCell>
                <mxCell id="172" value="" style="shape=tableRow;horizontal=0;startSize=0;swimlaneHead=0;swimlaneBody=0;top=0;left=0;bottom=0;right=0;dropTarget=0;collapsible=0;recursiveResize=0;expand=0;fontStyle=1;strokeColor=inherit;fillColor=#EAF2D3;" vertex="1" parent="163">
                    <mxGeometry y="71" width="270" height="34" as="geometry"/>
                </mxCell>
                <mxCell id="173" value="Value 4" style="connectable=0;recursiveResize=0;strokeColor=inherit;fillColor=inherit;whiteSpace=wrap;html=1;" vertex="1" parent="172">
                    <mxGeometry width="68" height="34" as="geometry">
                        <mxRectangle width="68" height="34" as="alternateBounds"/>
                    </mxGeometry>
                </mxCell>
                <mxCell id="174" value="Value 5" style="connectable=0;recursiveResize=0;strokeColor=inherit;fillColor=inherit;whiteSpace=wrap;html=1;" vertex="1" parent="172">
                    <mxGeometry x="68" width="67" height="34" as="geometry">
                        <mxRectangle width="67" height="34" as="alternateBounds"/>
                    </mxGeometry>
                </mxCell>
                <mxCell id="175" value="Value 6" style="connectable=0;recursiveResize=0;strokeColor=inherit;fillColor=inherit;whiteSpace=wrap;html=1;" vertex="1" parent="172">
                    <mxGeometry x="135" width="68" height="34" as="geometry">
                        <mxRectangle width="68" height="34" as="alternateBounds"/>
                    </mxGeometry>
                </mxCell>
                <mxCell id="252" style="connectable=0;recursiveResize=0;strokeColor=inherit;fillColor=inherit;whiteSpace=wrap;html=1;" vertex="1" parent="172">
                    <mxGeometry x="203" width="67" height="34" as="geometry">
                        <mxRectangle width="67" height="34" as="alternateBounds"/>
                    </mxGeometry>
                </mxCell>
                <mxCell id="176" value="" style="shape=tableRow;horizontal=0;startSize=0;swimlaneHead=0;swimlaneBody=0;top=0;left=0;bottom=0;right=0;dropTarget=0;collapsible=0;recursiveResize=0;expand=0;fontStyle=0;strokeColor=inherit;fillColor=#ffffff;" vertex="1" parent="163">
                    <mxGeometry y="105" width="270" height="35" as="geometry"/>
                </mxCell>
                <mxCell id="177" value="Value 7" style="connectable=0;recursiveResize=0;strokeColor=inherit;fillColor=inherit;fontStyle=0;align=center;whiteSpace=wrap;html=1;" vertex="1" parent="176">
                    <mxGeometry width="68" height="35" as="geometry">
                        <mxRectangle width="68" height="35" as="alternateBounds"/>
                    </mxGeometry>
                </mxCell>
                <mxCell id="178" value="Value 8" style="connectable=0;recursiveResize=0;strokeColor=inherit;fillColor=inherit;fontStyle=0;align=center;whiteSpace=wrap;html=1;" vertex="1" parent="176">
                    <mxGeometry x="68" width="67" height="35" as="geometry">
                        <mxRectangle width="67" height="35" as="alternateBounds"/>
                    </mxGeometry>
                </mxCell>
                <mxCell id="179" value="Value 9" style="connectable=0;recursiveResize=0;strokeColor=inherit;fillColor=inherit;fontStyle=0;align=center;whiteSpace=wrap;html=1;" vertex="1" parent="176">
                    <mxGeometry x="135" width="68" height="35" as="geometry">
                        <mxRectangle width="68" height="35" as="alternateBounds"/>
                    </mxGeometry>
                </mxCell>
                <mxCell id="253" style="connectable=0;recursiveResize=0;strokeColor=inherit;fillColor=inherit;fontStyle=0;align=center;whiteSpace=wrap;html=1;" vertex="1" parent="176">
                    <mxGeometry x="203" width="67" height="35" as="geometry">
                        <mxRectangle width="67" height="35" as="alternateBounds"/>
                    </mxGeometry>
                </mxCell>
                <mxCell id="180" value="" style="shape=tableRow;horizontal=0;startSize=0;swimlaneHead=0;swimlaneBody=0;top=0;left=0;bottom=0;right=0;dropTarget=0;collapsible=0;recursiveResize=0;expand=0;fontStyle=1;strokeColor=inherit;fillColor=#EAF2D3;shadow=1;" vertex="1" parent="163">
                    <mxGeometry y="140" width="270" height="34" as="geometry"/>
                </mxCell>
                <mxCell id="181" value="Value 10" style="connectable=0;recursiveResize=0;strokeColor=inherit;fillColor=inherit;whiteSpace=wrap;html=1;" vertex="1" parent="180">
                    <mxGeometry width="68" height="34" as="geometry">
                        <mxRectangle width="68" height="34" as="alternateBounds"/>
                    </mxGeometry>
                </mxCell>
                <mxCell id="182" value="Value 11" style="connectable=0;recursiveResize=0;strokeColor=inherit;fillColor=inherit;whiteSpace=wrap;html=1;" vertex="1" parent="180">
                    <mxGeometry x="68" width="67" height="34" as="geometry">
                        <mxRectangle width="67" height="34" as="alternateBounds"/>
                    </mxGeometry>
                </mxCell>
                <mxCell id="183" value="Value 12" style="connectable=0;recursiveResize=0;strokeColor=inherit;fillColor=inherit;whiteSpace=wrap;html=1;" vertex="1" parent="180">
                    <mxGeometry x="135" width="68" height="34" as="geometry">
                        <mxRectangle width="68" height="34" as="alternateBounds"/>
                    </mxGeometry>
                </mxCell>
                <mxCell id="254" style="connectable=0;recursiveResize=0;strokeColor=inherit;fillColor=inherit;whiteSpace=wrap;html=1;" vertex="1" parent="180">
                    <mxGeometry x="203" width="67" height="34" as="geometry">
                        <mxRectangle width="67" height="34" as="alternateBounds"/>
                    </mxGeometry>
                </mxCell>
                <mxCell id="255" style="shape=tableRow;horizontal=0;startSize=0;swimlaneHead=0;swimlaneBody=0;top=0;left=0;bottom=0;right=0;dropTarget=0;collapsible=0;recursiveResize=0;expand=0;fontStyle=1;strokeColor=inherit;fillColor=#EAF2D3;shadow=1;" vertex="1" parent="163">
                    <mxGeometry y="174" width="270" height="34" as="geometry"/>
                </mxCell>
                <mxCell id="256" style="connectable=0;recursiveResize=0;strokeColor=inherit;fillColor=inherit;whiteSpace=wrap;html=1;" vertex="1" parent="255">
                    <mxGeometry width="68" height="34" as="geometry">
                        <mxRectangle width="68" height="34" as="alternateBounds"/>
                    </mxGeometry>
                </mxCell>
                <mxCell id="257" style="connectable=0;recursiveResize=0;strokeColor=inherit;fillColor=inherit;whiteSpace=wrap;html=1;" vertex="1" parent="255">
                    <mxGeometry x="68" width="67" height="34" as="geometry">
                        <mxRectangle width="67" height="34" as="alternateBounds"/>
                    </mxGeometry>
                </mxCell>
                <mxCell id="258" style="connectable=0;recursiveResize=0;strokeColor=inherit;fillColor=inherit;whiteSpace=wrap;html=1;" vertex="1" parent="255">
                    <mxGeometry x="135" width="68" height="34" as="geometry">
                        <mxRectangle width="68" height="34" as="alternateBounds"/>
                    </mxGeometry>
                </mxCell>
                <mxCell id="259" style="connectable=0;recursiveResize=0;strokeColor=inherit;fillColor=inherit;whiteSpace=wrap;html=1;" vertex="1" parent="255">
                    <mxGeometry x="203" width="67" height="34" as="geometry">
                        <mxRectangle width="67" height="34" as="alternateBounds"/>
                    </mxGeometry>
                </mxCell>
                <mxCell id="260" style="shape=tableRow;horizontal=0;startSize=0;swimlaneHead=0;swimlaneBody=0;top=0;left=0;bottom=0;right=0;dropTarget=0;collapsible=0;recursiveResize=0;expand=0;fontStyle=1;strokeColor=inherit;fillColor=#EAF2D3;shadow=1;" vertex="1" parent="163">
                    <mxGeometry y="208" width="270" height="34" as="geometry"/>
                </mxCell>
                <mxCell id="261" style="connectable=0;recursiveResize=0;strokeColor=inherit;fillColor=inherit;whiteSpace=wrap;html=1;" vertex="1" parent="260">
                    <mxGeometry width="68" height="34" as="geometry">
                        <mxRectangle width="68" height="34" as="alternateBounds"/>
                    </mxGeometry>
                </mxCell>
                <mxCell id="262" style="connectable=0;recursiveResize=0;strokeColor=inherit;fillColor=inherit;whiteSpace=wrap;html=1;" vertex="1" parent="260">
                    <mxGeometry x="68" width="67" height="34" as="geometry">
                        <mxRectangle width="67" height="34" as="alternateBounds"/>
                    </mxGeometry>
                </mxCell>
                <mxCell id="263" style="connectable=0;recursiveResize=0;strokeColor=inherit;fillColor=inherit;whiteSpace=wrap;html=1;" vertex="1" parent="260">
                    <mxGeometry x="135" width="68" height="34" as="geometry">
                        <mxRectangle width="68" height="34" as="alternateBounds"/>
                    </mxGeometry>
                </mxCell>
                <mxCell id="264" style="connectable=0;recursiveResize=0;strokeColor=inherit;fillColor=inherit;whiteSpace=wrap;html=1;" vertex="1" parent="260">
                    <mxGeometry x="203" width="67" height="34" as="geometry">
                        <mxRectangle width="67" height="34" as="alternateBounds"/>
                    </mxGeometry>
                </mxCell>
                <mxCell id="265" style="shape=tableRow;horizontal=0;startSize=0;swimlaneHead=0;swimlaneBody=0;top=0;left=0;bottom=0;right=0;dropTarget=0;collapsible=0;recursiveResize=0;expand=0;fontStyle=1;strokeColor=inherit;fillColor=#EAF2D3;shadow=1;" vertex="1" parent="163">
                    <mxGeometry y="242" width="270" height="34" as="geometry"/>
                </mxCell>
                <mxCell id="266" style="connectable=0;recursiveResize=0;strokeColor=inherit;fillColor=inherit;whiteSpace=wrap;html=1;" vertex="1" parent="265">
                    <mxGeometry width="68" height="34" as="geometry">
                        <mxRectangle width="68" height="34" as="alternateBounds"/>
                    </mxGeometry>
                </mxCell>
                <mxCell id="267" style="connectable=0;recursiveResize=0;strokeColor=inherit;fillColor=inherit;whiteSpace=wrap;html=1;" vertex="1" parent="265">
                    <mxGeometry x="68" width="67" height="34" as="geometry">
                        <mxRectangle width="67" height="34" as="alternateBounds"/>
                    </mxGeometry>
                </mxCell>
                <mxCell id="268" style="connectable=0;recursiveResize=0;strokeColor=inherit;fillColor=inherit;whiteSpace=wrap;html=1;" vertex="1" parent="265">
                    <mxGeometry x="135" width="68" height="34" as="geometry">
                        <mxRectangle width="68" height="34" as="alternateBounds"/>
                    </mxGeometry>
                </mxCell>
                <mxCell id="269" style="connectable=0;recursiveResize=0;strokeColor=inherit;fillColor=inherit;whiteSpace=wrap;html=1;" vertex="1" parent="265">
                    <mxGeometry x="203" width="67" height="34" as="geometry">
                        <mxRectangle width="67" height="34" as="alternateBounds"/>
                    </mxGeometry>
                </mxCell>
                <mxCell id="270" style="shape=tableRow;horizontal=0;startSize=0;swimlaneHead=0;swimlaneBody=0;top=0;left=0;bottom=0;right=0;dropTarget=0;collapsible=0;recursiveResize=0;expand=0;fontStyle=1;strokeColor=inherit;fillColor=#EAF2D3;shadow=1;" vertex="1" parent="163">
                    <mxGeometry y="276" width="270" height="34" as="geometry"/>
                </mxCell>
                <mxCell id="271" style="connectable=0;recursiveResize=0;strokeColor=inherit;fillColor=inherit;whiteSpace=wrap;html=1;" vertex="1" parent="270">
                    <mxGeometry width="68" height="34" as="geometry">
                        <mxRectangle width="68" height="34" as="alternateBounds"/>
                    </mxGeometry>
                </mxCell>
                <mxCell id="272" style="connectable=0;recursiveResize=0;strokeColor=inherit;fillColor=inherit;whiteSpace=wrap;html=1;" vertex="1" parent="270">
                    <mxGeometry x="68" width="67" height="34" as="geometry">
                        <mxRectangle width="67" height="34" as="alternateBounds"/>
                    </mxGeometry>
                </mxCell>
                <mxCell id="273" style="connectable=0;recursiveResize=0;strokeColor=inherit;fillColor=inherit;whiteSpace=wrap;html=1;" vertex="1" parent="270">
                    <mxGeometry x="135" width="68" height="34" as="geometry">
                        <mxRectangle width="68" height="34" as="alternateBounds"/>
                    </mxGeometry>
                </mxCell>
                <mxCell id="274" style="connectable=0;recursiveResize=0;strokeColor=inherit;fillColor=inherit;whiteSpace=wrap;html=1;" vertex="1" parent="270">
                    <mxGeometry x="203" width="67" height="34" as="geometry">
                        <mxRectangle width="67" height="34" as="alternateBounds"/>
                    </mxGeometry>
                </mxCell>
                <mxCell id="18" value="ساعت 2" style="swimlane;swimlaneHead=0;swimlaneBody=0;fontStyle=0;connectable=0;fillColor=none;startSize=40;collapsible=0;recursiveResize=0;expand=0;fontStyle=1;" vertex="1" parent="16">
                    <mxGeometry x="311" width="268" height="352" as="geometry">
                        <mxRectangle width="268" height="352" as="alternateBounds"/>
                    </mxGeometry>
                </mxCell>
                <mxCell id="275" value="Assets" style="childLayout=tableLayout;recursiveResize=0;strokeColor=#98bf21;fillColor=#A7C942;shadow=1;" vertex="1" parent="18">
                    <mxGeometry x="-2" y="40" width="270" height="310" as="geometry"/>
                </mxCell>
                <mxCell id="276" style="shape=tableRow;horizontal=0;startSize=0;swimlaneHead=0;swimlaneBody=0;top=0;left=0;bottom=0;right=0;dropTarget=0;collapsible=0;recursiveResize=0;expand=0;fontStyle=0;strokeColor=inherit;fillColor=#ffffff;" vertex="1" parent="275">
                    <mxGeometry width="270" height="36" as="geometry"/>
                </mxCell>
                <mxCell id="277" value="درس" style="connectable=0;recursiveResize=0;strokeColor=inherit;fillColor=#A7C942;align=center;fontStyle=1;fontColor=#FFFFFF;html=1;" vertex="1" parent="276">
                    <mxGeometry width="68" height="36" as="geometry">
                        <mxRectangle width="68" height="36" as="alternateBounds"/>
                    </mxGeometry>
                </mxCell>
                <mxCell id="278" value="استاد" style="connectable=0;recursiveResize=0;strokeColor=inherit;fillColor=#A7C942;align=center;fontStyle=1;fontColor=#FFFFFF;html=1;" vertex="1" parent="276">
                    <mxGeometry x="68" width="67" height="36" as="geometry">
                        <mxRectangle width="67" height="36" as="alternateBounds"/>
                    </mxGeometry>
                </mxCell>
                <mxCell id="279" value="گروه درسی" style="connectable=0;recursiveResize=0;strokeColor=inherit;fillColor=#A7C942;align=center;fontStyle=1;fontColor=#FFFFFF;html=1;" vertex="1" parent="276">
                    <mxGeometry x="135" width="68" height="36" as="geometry">
                        <mxRectangle width="68" height="36" as="alternateBounds"/>
                    </mxGeometry>
                </mxCell>
                <mxCell id="280" value="کلاس" style="connectable=0;recursiveResize=0;strokeColor=inherit;fillColor=#A7C942;align=center;fontStyle=1;fontColor=#FFFFFF;html=1;" vertex="1" parent="276">
                    <mxGeometry x="203" width="67" height="36" as="geometry">
                        <mxRectangle width="67" height="36" as="alternateBounds"/>
                    </mxGeometry>
                </mxCell>
                <mxCell id="281" value="" style="shape=tableRow;horizontal=0;startSize=0;swimlaneHead=0;swimlaneBody=0;top=0;left=0;bottom=0;right=0;dropTarget=0;collapsible=0;recursiveResize=0;expand=0;fontStyle=0;strokeColor=inherit;fillColor=#ffffff;" vertex="1" parent="275">
                    <mxGeometry y="36" width="270" height="35" as="geometry"/>
                </mxCell>
                <mxCell id="282" value="Value 1" style="connectable=0;recursiveResize=0;strokeColor=inherit;fillColor=inherit;align=center;whiteSpace=wrap;html=1;" vertex="1" parent="281">
                    <mxGeometry width="68" height="35" as="geometry">
                        <mxRectangle width="68" height="35" as="alternateBounds"/>
                    </mxGeometry>
                </mxCell>
                <mxCell id="283" value="Value 2" style="connectable=0;recursiveResize=0;strokeColor=inherit;fillColor=inherit;align=center;whiteSpace=wrap;html=1;" vertex="1" parent="281">
                    <mxGeometry x="68" width="67" height="35" as="geometry">
                        <mxRectangle width="67" height="35" as="alternateBounds"/>
                    </mxGeometry>
                </mxCell>
                <mxCell id="284" value="Value 3" style="connectable=0;recursiveResize=0;strokeColor=inherit;fillColor=inherit;align=center;whiteSpace=wrap;html=1;" vertex="1" parent="281">
                    <mxGeometry x="135" width="68" height="35" as="geometry">
                        <mxRectangle width="68" height="35" as="alternateBounds"/>
                    </mxGeometry>
                </mxCell>
                <mxCell id="285" style="connectable=0;recursiveResize=0;strokeColor=inherit;fillColor=inherit;align=center;whiteSpace=wrap;html=1;" vertex="1" parent="281">
                    <mxGeometry x="203" width="67" height="35" as="geometry">
                        <mxRectangle width="67" height="35" as="alternateBounds"/>
                    </mxGeometry>
                </mxCell>
                <mxCell id="286" value="" style="shape=tableRow;horizontal=0;startSize=0;swimlaneHead=0;swimlaneBody=0;top=0;left=0;bottom=0;right=0;dropTarget=0;collapsible=0;recursiveResize=0;expand=0;fontStyle=1;strokeColor=inherit;fillColor=#EAF2D3;" vertex="1" parent="275">
                    <mxGeometry y="71" width="270" height="34" as="geometry"/>
                </mxCell>
                <mxCell id="287" value="Value 4" style="connectable=0;recursiveResize=0;strokeColor=inherit;fillColor=inherit;whiteSpace=wrap;html=1;" vertex="1" parent="286">
                    <mxGeometry width="68" height="34" as="geometry">
                        <mxRectangle width="68" height="34" as="alternateBounds"/>
                    </mxGeometry>
                </mxCell>
                <mxCell id="288" value="Value 5" style="connectable=0;recursiveResize=0;strokeColor=inherit;fillColor=inherit;whiteSpace=wrap;html=1;" vertex="1" parent="286">
                    <mxGeometry x="68" width="67" height="34" as="geometry">
                        <mxRectangle width="67" height="34" as="alternateBounds"/>
                    </mxGeometry>
                </mxCell>
                <mxCell id="289" value="Value 6" style="connectable=0;recursiveResize=0;strokeColor=inherit;fillColor=inherit;whiteSpace=wrap;html=1;" vertex="1" parent="286">
                    <mxGeometry x="135" width="68" height="34" as="geometry">
                        <mxRectangle width="68" height="34" as="alternateBounds"/>
                    </mxGeometry>
                </mxCell>
                <mxCell id="290" style="connectable=0;recursiveResize=0;strokeColor=inherit;fillColor=inherit;whiteSpace=wrap;html=1;" vertex="1" parent="286">
                    <mxGeometry x="203" width="67" height="34" as="geometry">
                        <mxRectangle width="67" height="34" as="alternateBounds"/>
                    </mxGeometry>
                </mxCell>
                <mxCell id="291" value="" style="shape=tableRow;horizontal=0;startSize=0;swimlaneHead=0;swimlaneBody=0;top=0;left=0;bottom=0;right=0;dropTarget=0;collapsible=0;recursiveResize=0;expand=0;fontStyle=0;strokeColor=inherit;fillColor=#ffffff;" vertex="1" parent="275">
                    <mxGeometry y="105" width="270" height="35" as="geometry"/>
                </mxCell>
                <mxCell id="292" value="Value 7" style="connectable=0;recursiveResize=0;strokeColor=inherit;fillColor=inherit;fontStyle=0;align=center;whiteSpace=wrap;html=1;" vertex="1" parent="291">
                    <mxGeometry width="68" height="35" as="geometry">
                        <mxRectangle width="68" height="35" as="alternateBounds"/>
                    </mxGeometry>
                </mxCell>
                <mxCell id="293" value="Value 8" style="connectable=0;recursiveResize=0;strokeColor=inherit;fillColor=inherit;fontStyle=0;align=center;whiteSpace=wrap;html=1;" vertex="1" parent="291">
                    <mxGeometry x="68" width="67" height="35" as="geometry">
                        <mxRectangle width="67" height="35" as="alternateBounds"/>
                    </mxGeometry>
                </mxCell>
                <mxCell id="294" value="Value 9" style="connectable=0;recursiveResize=0;strokeColor=inherit;fillColor=inherit;fontStyle=0;align=center;whiteSpace=wrap;html=1;" vertex="1" parent="291">
                    <mxGeometry x="135" width="68" height="35" as="geometry">
                        <mxRectangle width="68" height="35" as="alternateBounds"/>
                    </mxGeometry>
                </mxCell>
                <mxCell id="295" style="connectable=0;recursiveResize=0;strokeColor=inherit;fillColor=inherit;fontStyle=0;align=center;whiteSpace=wrap;html=1;" vertex="1" parent="291">
                    <mxGeometry x="203" width="67" height="35" as="geometry">
                        <mxRectangle width="67" height="35" as="alternateBounds"/>
                    </mxGeometry>
                </mxCell>
                <mxCell id="296" value="" style="shape=tableRow;horizontal=0;startSize=0;swimlaneHead=0;swimlaneBody=0;top=0;left=0;bottom=0;right=0;dropTarget=0;collapsible=0;recursiveResize=0;expand=0;fontStyle=1;strokeColor=inherit;fillColor=#EAF2D3;shadow=1;" vertex="1" parent="275">
                    <mxGeometry y="140" width="270" height="34" as="geometry"/>
                </mxCell>
                <mxCell id="297" value="Value 10" style="connectable=0;recursiveResize=0;strokeColor=inherit;fillColor=inherit;whiteSpace=wrap;html=1;" vertex="1" parent="296">
                    <mxGeometry width="68" height="34" as="geometry">
                        <mxRectangle width="68" height="34" as="alternateBounds"/>
                    </mxGeometry>
                </mxCell>
                <mxCell id="298" value="Value 11" style="connectable=0;recursiveResize=0;strokeColor=inherit;fillColor=inherit;whiteSpace=wrap;html=1;" vertex="1" parent="296">
                    <mxGeometry x="68" width="67" height="34" as="geometry">
                        <mxRectangle width="67" height="34" as="alternateBounds"/>
                    </mxGeometry>
                </mxCell>
                <mxCell id="299" value="Value 12" style="connectable=0;recursiveResize=0;strokeColor=inherit;fillColor=inherit;whiteSpace=wrap;html=1;" vertex="1" parent="296">
                    <mxGeometry x="135" width="68" height="34" as="geometry">
                        <mxRectangle width="68" height="34" as="alternateBounds"/>
                    </mxGeometry>
                </mxCell>
                <mxCell id="300" style="connectable=0;recursiveResize=0;strokeColor=inherit;fillColor=inherit;whiteSpace=wrap;html=1;" vertex="1" parent="296">
                    <mxGeometry x="203" width="67" height="34" as="geometry">
                        <mxRectangle width="67" height="34" as="alternateBounds"/>
                    </mxGeometry>
                </mxCell>
                <mxCell id="301" style="shape=tableRow;horizontal=0;startSize=0;swimlaneHead=0;swimlaneBody=0;top=0;left=0;bottom=0;right=0;dropTarget=0;collapsible=0;recursiveResize=0;expand=0;fontStyle=1;strokeColor=inherit;fillColor=#EAF2D3;shadow=1;" vertex="1" parent="275">
                    <mxGeometry y="174" width="270" height="34" as="geometry"/>
                </mxCell>
                <mxCell id="302" style="connectable=0;recursiveResize=0;strokeColor=inherit;fillColor=inherit;whiteSpace=wrap;html=1;" vertex="1" parent="301">
                    <mxGeometry width="68" height="34" as="geometry">
                        <mxRectangle width="68" height="34" as="alternateBounds"/>
                    </mxGeometry>
                </mxCell>
                <mxCell id="303" style="connectable=0;recursiveResize=0;strokeColor=inherit;fillColor=inherit;whiteSpace=wrap;html=1;" vertex="1" parent="301">
                    <mxGeometry x="68" width="67" height="34" as="geometry">
                        <mxRectangle width="67" height="34" as="alternateBounds"/>
                    </mxGeometry>
                </mxCell>
                <mxCell id="304" style="connectable=0;recursiveResize=0;strokeColor=inherit;fillColor=inherit;whiteSpace=wrap;html=1;" vertex="1" parent="301">
                    <mxGeometry x="135" width="68" height="34" as="geometry">
                        <mxRectangle width="68" height="34" as="alternateBounds"/>
                    </mxGeometry>
                </mxCell>
                <mxCell id="305" style="connectable=0;recursiveResize=0;strokeColor=inherit;fillColor=inherit;whiteSpace=wrap;html=1;" vertex="1" parent="301">
                    <mxGeometry x="203" width="67" height="34" as="geometry">
                        <mxRectangle width="67" height="34" as="alternateBounds"/>
                    </mxGeometry>
                </mxCell>
                <mxCell id="306" style="shape=tableRow;horizontal=0;startSize=0;swimlaneHead=0;swimlaneBody=0;top=0;left=0;bottom=0;right=0;dropTarget=0;collapsible=0;recursiveResize=0;expand=0;fontStyle=1;strokeColor=inherit;fillColor=#EAF2D3;shadow=1;" vertex="1" parent="275">
                    <mxGeometry y="208" width="270" height="34" as="geometry"/>
                </mxCell>
                <mxCell id="307" style="connectable=0;recursiveResize=0;strokeColor=inherit;fillColor=inherit;whiteSpace=wrap;html=1;" vertex="1" parent="306">
                    <mxGeometry width="68" height="34" as="geometry">
                        <mxRectangle width="68" height="34" as="alternateBounds"/>
                    </mxGeometry>
                </mxCell>
                <mxCell id="308" style="connectable=0;recursiveResize=0;strokeColor=inherit;fillColor=inherit;whiteSpace=wrap;html=1;" vertex="1" parent="306">
                    <mxGeometry x="68" width="67" height="34" as="geometry">
                        <mxRectangle width="67" height="34" as="alternateBounds"/>
                    </mxGeometry>
                </mxCell>
                <mxCell id="309" style="connectable=0;recursiveResize=0;strokeColor=inherit;fillColor=inherit;whiteSpace=wrap;html=1;" vertex="1" parent="306">
                    <mxGeometry x="135" width="68" height="34" as="geometry">
                        <mxRectangle width="68" height="34" as="alternateBounds"/>
                    </mxGeometry>
                </mxCell>
                <mxCell id="310" style="connectable=0;recursiveResize=0;strokeColor=inherit;fillColor=inherit;whiteSpace=wrap;html=1;" vertex="1" parent="306">
                    <mxGeometry x="203" width="67" height="34" as="geometry">
                        <mxRectangle width="67" height="34" as="alternateBounds"/>
                    </mxGeometry>
                </mxCell>
                <mxCell id="311" style="shape=tableRow;horizontal=0;startSize=0;swimlaneHead=0;swimlaneBody=0;top=0;left=0;bottom=0;right=0;dropTarget=0;collapsible=0;recursiveResize=0;expand=0;fontStyle=1;strokeColor=inherit;fillColor=#EAF2D3;shadow=1;" vertex="1" parent="275">
                    <mxGeometry y="242" width="270" height="34" as="geometry"/>
                </mxCell>
                <mxCell id="312" style="connectable=0;recursiveResize=0;strokeColor=inherit;fillColor=inherit;whiteSpace=wrap;html=1;" vertex="1" parent="311">
                    <mxGeometry width="68" height="34" as="geometry">
                        <mxRectangle width="68" height="34" as="alternateBounds"/>
                    </mxGeometry>
                </mxCell>
                <mxCell id="313" style="connectable=0;recursiveResize=0;strokeColor=inherit;fillColor=inherit;whiteSpace=wrap;html=1;" vertex="1" parent="311">
                    <mxGeometry x="68" width="67" height="34" as="geometry">
                        <mxRectangle width="67" height="34" as="alternateBounds"/>
                    </mxGeometry>
                </mxCell>
                <mxCell id="314" style="connectable=0;recursiveResize=0;strokeColor=inherit;fillColor=inherit;whiteSpace=wrap;html=1;" vertex="1" parent="311">
                    <mxGeometry x="135" width="68" height="34" as="geometry">
                        <mxRectangle width="68" height="34" as="alternateBounds"/>
                    </mxGeometry>
                </mxCell>
                <mxCell id="315" style="connectable=0;recursiveResize=0;strokeColor=inherit;fillColor=inherit;whiteSpace=wrap;html=1;" vertex="1" parent="311">
                    <mxGeometry x="203" width="67" height="34" as="geometry">
                        <mxRectangle width="67" height="34" as="alternateBounds"/>
                    </mxGeometry>
                </mxCell>
                <mxCell id="316" style="shape=tableRow;horizontal=0;startSize=0;swimlaneHead=0;swimlaneBody=0;top=0;left=0;bottom=0;right=0;dropTarget=0;collapsible=0;recursiveResize=0;expand=0;fontStyle=1;strokeColor=inherit;fillColor=#EAF2D3;shadow=1;" vertex="1" parent="275">
                    <mxGeometry y="276" width="270" height="34" as="geometry"/>
                </mxCell>
                <mxCell id="317" style="connectable=0;recursiveResize=0;strokeColor=inherit;fillColor=inherit;whiteSpace=wrap;html=1;" vertex="1" parent="316">
                    <mxGeometry width="68" height="34" as="geometry">
                        <mxRectangle width="68" height="34" as="alternateBounds"/>
                    </mxGeometry>
                </mxCell>
                <mxCell id="318" style="connectable=0;recursiveResize=0;strokeColor=inherit;fillColor=inherit;whiteSpace=wrap;html=1;" vertex="1" parent="316">
                    <mxGeometry x="68" width="67" height="34" as="geometry">
                        <mxRectangle width="67" height="34" as="alternateBounds"/>
                    </mxGeometry>
                </mxCell>
                <mxCell id="319" style="connectable=0;recursiveResize=0;strokeColor=inherit;fillColor=inherit;whiteSpace=wrap;html=1;" vertex="1" parent="316">
                    <mxGeometry x="135" width="68" height="34" as="geometry">
                        <mxRectangle width="68" height="34" as="alternateBounds"/>
                    </mxGeometry>
                </mxCell>
                <mxCell id="320" style="connectable=0;recursiveResize=0;strokeColor=inherit;fillColor=inherit;whiteSpace=wrap;html=1;" vertex="1" parent="316">
                    <mxGeometry x="203" width="67" height="34" as="geometry">
                        <mxRectangle width="67" height="34" as="alternateBounds"/>
                    </mxGeometry>
                </mxCell>
                <mxCell id="19" value="ساعت 3" style="swimlane;swimlaneHead=0;swimlaneBody=0;fontStyle=0;connectable=0;fillColor=none;startSize=40;collapsible=0;recursiveResize=0;expand=0;fontStyle=1;" vertex="1" parent="16">
                    <mxGeometry x="579" width="271" height="352" as="geometry">
                        <mxRectangle width="271" height="352" as="alternateBounds"/>
                    </mxGeometry>
                </mxCell>
                <mxCell id="322" value="Assets" style="childLayout=tableLayout;recursiveResize=0;strokeColor=#98bf21;fillColor=#A7C942;shadow=1;" vertex="1" parent="19">
                    <mxGeometry y="40" width="270" height="310" as="geometry"/>
                </mxCell>
                <mxCell id="323" style="shape=tableRow;horizontal=0;startSize=0;swimlaneHead=0;swimlaneBody=0;top=0;left=0;bottom=0;right=0;dropTarget=0;collapsible=0;recursiveResize=0;expand=0;fontStyle=0;strokeColor=inherit;fillColor=#ffffff;" vertex="1" parent="322">
                    <mxGeometry width="270" height="36" as="geometry"/>
                </mxCell>
                <mxCell id="324" value="درس" style="connectable=0;recursiveResize=0;strokeColor=inherit;fillColor=#A7C942;align=center;fontStyle=1;fontColor=#FFFFFF;html=1;" vertex="1" parent="323">
                    <mxGeometry width="68" height="36" as="geometry">
                        <mxRectangle width="68" height="36" as="alternateBounds"/>
                    </mxGeometry>
                </mxCell>
                <mxCell id="325" value="استاد" style="connectable=0;recursiveResize=0;strokeColor=inherit;fillColor=#A7C942;align=center;fontStyle=1;fontColor=#FFFFFF;html=1;" vertex="1" parent="323">
                    <mxGeometry x="68" width="67" height="36" as="geometry">
                        <mxRectangle width="67" height="36" as="alternateBounds"/>
                    </mxGeometry>
                </mxCell>
                <mxCell id="326" value="گروه درسی" style="connectable=0;recursiveResize=0;strokeColor=inherit;fillColor=#A7C942;align=center;fontStyle=1;fontColor=#FFFFFF;html=1;" vertex="1" parent="323">
                    <mxGeometry x="135" width="68" height="36" as="geometry">
                        <mxRectangle width="68" height="36" as="alternateBounds"/>
                    </mxGeometry>
                </mxCell>
                <mxCell id="327" value="کلاس" style="connectable=0;recursiveResize=0;strokeColor=inherit;fillColor=#A7C942;align=center;fontStyle=1;fontColor=#FFFFFF;html=1;" vertex="1" parent="323">
                    <mxGeometry x="203" width="67" height="36" as="geometry">
                        <mxRectangle width="67" height="36" as="alternateBounds"/>
                    </mxGeometry>
                </mxCell>
                <mxCell id="328" value="" style="shape=tableRow;horizontal=0;startSize=0;swimlaneHead=0;swimlaneBody=0;top=0;left=0;bottom=0;right=0;dropTarget=0;collapsible=0;recursiveResize=0;expand=0;fontStyle=0;strokeColor=inherit;fillColor=#ffffff;" vertex="1" parent="322">
                    <mxGeometry y="36" width="270" height="35" as="geometry"/>
                </mxCell>
                <mxCell id="329" value="Value 1" style="connectable=0;recursiveResize=0;strokeColor=inherit;fillColor=inherit;align=center;whiteSpace=wrap;html=1;" vertex="1" parent="328">
                    <mxGeometry width="68" height="35" as="geometry">
                        <mxRectangle width="68" height="35" as="alternateBounds"/>
                    </mxGeometry>
                </mxCell>
                <mxCell id="330" value="Value 2" style="connectable=0;recursiveResize=0;strokeColor=inherit;fillColor=inherit;align=center;whiteSpace=wrap;html=1;" vertex="1" parent="328">
                    <mxGeometry x="68" width="67" height="35" as="geometry">
                        <mxRectangle width="67" height="35" as="alternateBounds"/>
                    </mxGeometry>
                </mxCell>
                <mxCell id="331" value="Value 3" style="connectable=0;recursiveResize=0;strokeColor=inherit;fillColor=inherit;align=center;whiteSpace=wrap;html=1;" vertex="1" parent="328">
                    <mxGeometry x="135" width="68" height="35" as="geometry">
                        <mxRectangle width="68" height="35" as="alternateBounds"/>
                    </mxGeometry>
                </mxCell>
                <mxCell id="332" style="connectable=0;recursiveResize=0;strokeColor=inherit;fillColor=inherit;align=center;whiteSpace=wrap;html=1;" vertex="1" parent="328">
                    <mxGeometry x="203" width="67" height="35" as="geometry">
                        <mxRectangle width="67" height="35" as="alternateBounds"/>
                    </mxGeometry>
                </mxCell>
                <mxCell id="333" value="" style="shape=tableRow;horizontal=0;startSize=0;swimlaneHead=0;swimlaneBody=0;top=0;left=0;bottom=0;right=0;dropTarget=0;collapsible=0;recursiveResize=0;expand=0;fontStyle=1;strokeColor=inherit;fillColor=#EAF2D3;" vertex="1" parent="322">
                    <mxGeometry y="71" width="270" height="34" as="geometry"/>
                </mxCell>
                <mxCell id="334" value="Value 4" style="connectable=0;recursiveResize=0;strokeColor=inherit;fillColor=inherit;whiteSpace=wrap;html=1;" vertex="1" parent="333">
                    <mxGeometry width="68" height="34" as="geometry">
                        <mxRectangle width="68" height="34" as="alternateBounds"/>
                    </mxGeometry>
                </mxCell>
                <mxCell id="335" value="Value 5" style="connectable=0;recursiveResize=0;strokeColor=inherit;fillColor=inherit;whiteSpace=wrap;html=1;" vertex="1" parent="333">
                    <mxGeometry x="68" width="67" height="34" as="geometry">
                        <mxRectangle width="67" height="34" as="alternateBounds"/>
                    </mxGeometry>
                </mxCell>
                <mxCell id="336" value="Value 6" style="connectable=0;recursiveResize=0;strokeColor=inherit;fillColor=inherit;whiteSpace=wrap;html=1;" vertex="1" parent="333">
                    <mxGeometry x="135" width="68" height="34" as="geometry">
                        <mxRectangle width="68" height="34" as="alternateBounds"/>
                    </mxGeometry>
                </mxCell>
                <mxCell id="337" style="connectable=0;recursiveResize=0;strokeColor=inherit;fillColor=inherit;whiteSpace=wrap;html=1;" vertex="1" parent="333">
                    <mxGeometry x="203" width="67" height="34" as="geometry">
                        <mxRectangle width="67" height="34" as="alternateBounds"/>
                    </mxGeometry>
                </mxCell>
                <mxCell id="338" value="" style="shape=tableRow;horizontal=0;startSize=0;swimlaneHead=0;swimlaneBody=0;top=0;left=0;bottom=0;right=0;dropTarget=0;collapsible=0;recursiveResize=0;expand=0;fontStyle=0;strokeColor=inherit;fillColor=#ffffff;" vertex="1" parent="322">
                    <mxGeometry y="105" width="270" height="35" as="geometry"/>
                </mxCell>
                <mxCell id="339" value="Value 7" style="connectable=0;recursiveResize=0;strokeColor=inherit;fillColor=inherit;fontStyle=0;align=center;whiteSpace=wrap;html=1;" vertex="1" parent="338">
                    <mxGeometry width="68" height="35" as="geometry">
                        <mxRectangle width="68" height="35" as="alternateBounds"/>
                    </mxGeometry>
                </mxCell>
                <mxCell id="340" value="Value 8" style="connectable=0;recursiveResize=0;strokeColor=inherit;fillColor=inherit;fontStyle=0;align=center;whiteSpace=wrap;html=1;" vertex="1" parent="338">
                    <mxGeometry x="68" width="67" height="35" as="geometry">
                        <mxRectangle width="67" height="35" as="alternateBounds"/>
                    </mxGeometry>
                </mxCell>
                <mxCell id="341" value="Value 9" style="connectable=0;recursiveResize=0;strokeColor=inherit;fillColor=inherit;fontStyle=0;align=center;whiteSpace=wrap;html=1;" vertex="1" parent="338">
                    <mxGeometry x="135" width="68" height="35" as="geometry">
                        <mxRectangle width="68" height="35" as="alternateBounds"/>
                    </mxGeometry>
                </mxCell>
                <mxCell id="342" style="connectable=0;recursiveResize=0;strokeColor=inherit;fillColor=inherit;fontStyle=0;align=center;whiteSpace=wrap;html=1;" vertex="1" parent="338">
                    <mxGeometry x="203" width="67" height="35" as="geometry">
                        <mxRectangle width="67" height="35" as="alternateBounds"/>
                    </mxGeometry>
                </mxCell>
                <mxCell id="343" value="" style="shape=tableRow;horizontal=0;startSize=0;swimlaneHead=0;swimlaneBody=0;top=0;left=0;bottom=0;right=0;dropTarget=0;collapsible=0;recursiveResize=0;expand=0;fontStyle=1;strokeColor=inherit;fillColor=#EAF2D3;shadow=1;" vertex="1" parent="322">
                    <mxGeometry y="140" width="270" height="34" as="geometry"/>
                </mxCell>
                <mxCell id="344" value="Value 10" style="connectable=0;recursiveResize=0;strokeColor=inherit;fillColor=inherit;whiteSpace=wrap;html=1;" vertex="1" parent="343">
                    <mxGeometry width="68" height="34" as="geometry">
                        <mxRectangle width="68" height="34" as="alternateBounds"/>
                    </mxGeometry>
                </mxCell>
                <mxCell id="345" value="Value 11" style="connectable=0;recursiveResize=0;strokeColor=inherit;fillColor=inherit;whiteSpace=wrap;html=1;" vertex="1" parent="343">
                    <mxGeometry x="68" width="67" height="34" as="geometry">
                        <mxRectangle width="67" height="34" as="alternateBounds"/>
                    </mxGeometry>
                </mxCell>
                <mxCell id="346" value="Value 12" style="connectable=0;recursiveResize=0;strokeColor=inherit;fillColor=inherit;whiteSpace=wrap;html=1;" vertex="1" parent="343">
                    <mxGeometry x="135" width="68" height="34" as="geometry">
                        <mxRectangle width="68" height="34" as="alternateBounds"/>
                    </mxGeometry>
                </mxCell>
                <mxCell id="347" style="connectable=0;recursiveResize=0;strokeColor=inherit;fillColor=inherit;whiteSpace=wrap;html=1;" vertex="1" parent="343">
                    <mxGeometry x="203" width="67" height="34" as="geometry">
                        <mxRectangle width="67" height="34" as="alternateBounds"/>
                    </mxGeometry>
                </mxCell>
                <mxCell id="348" style="shape=tableRow;horizontal=0;startSize=0;swimlaneHead=0;swimlaneBody=0;top=0;left=0;bottom=0;right=0;dropTarget=0;collapsible=0;recursiveResize=0;expand=0;fontStyle=1;strokeColor=inherit;fillColor=#EAF2D3;shadow=1;" vertex="1" parent="322">
                    <mxGeometry y="174" width="270" height="34" as="geometry"/>
                </mxCell>
                <mxCell id="349" style="connectable=0;recursiveResize=0;strokeColor=inherit;fillColor=inherit;whiteSpace=wrap;html=1;" vertex="1" parent="348">
                    <mxGeometry width="68" height="34" as="geometry">
                        <mxRectangle width="68" height="34" as="alternateBounds"/>
                    </mxGeometry>
                </mxCell>
                <mxCell id="350" style="connectable=0;recursiveResize=0;strokeColor=inherit;fillColor=inherit;whiteSpace=wrap;html=1;" vertex="1" parent="348">
                    <mxGeometry x="68" width="67" height="34" as="geometry">
                        <mxRectangle width="67" height="34" as="alternateBounds"/>
                    </mxGeometry>
                </mxCell>
                <mxCell id="351" style="connectable=0;recursiveResize=0;strokeColor=inherit;fillColor=inherit;whiteSpace=wrap;html=1;" vertex="1" parent="348">
                    <mxGeometry x="135" width="68" height="34" as="geometry">
                        <mxRectangle width="68" height="34" as="alternateBounds"/>
                    </mxGeometry>
                </mxCell>
                <mxCell id="352" style="connectable=0;recursiveResize=0;strokeColor=inherit;fillColor=inherit;whiteSpace=wrap;html=1;" vertex="1" parent="348">
                    <mxGeometry x="203" width="67" height="34" as="geometry">
                        <mxRectangle width="67" height="34" as="alternateBounds"/>
                    </mxGeometry>
                </mxCell>
                <mxCell id="353" style="shape=tableRow;horizontal=0;startSize=0;swimlaneHead=0;swimlaneBody=0;top=0;left=0;bottom=0;right=0;dropTarget=0;collapsible=0;recursiveResize=0;expand=0;fontStyle=1;strokeColor=inherit;fillColor=#EAF2D3;shadow=1;" vertex="1" parent="322">
                    <mxGeometry y="208" width="270" height="34" as="geometry"/>
                </mxCell>
                <mxCell id="354" style="connectable=0;recursiveResize=0;strokeColor=inherit;fillColor=inherit;whiteSpace=wrap;html=1;" vertex="1" parent="353">
                    <mxGeometry width="68" height="34" as="geometry">
                        <mxRectangle width="68" height="34" as="alternateBounds"/>
                    </mxGeometry>
                </mxCell>
                <mxCell id="355" style="connectable=0;recursiveResize=0;strokeColor=inherit;fillColor=inherit;whiteSpace=wrap;html=1;" vertex="1" parent="353">
                    <mxGeometry x="68" width="67" height="34" as="geometry">
                        <mxRectangle width="67" height="34" as="alternateBounds"/>
                    </mxGeometry>
                </mxCell>
                <mxCell id="356" style="connectable=0;recursiveResize=0;strokeColor=inherit;fillColor=inherit;whiteSpace=wrap;html=1;" vertex="1" parent="353">
                    <mxGeometry x="135" width="68" height="34" as="geometry">
                        <mxRectangle width="68" height="34" as="alternateBounds"/>
                    </mxGeometry>
                </mxCell>
                <mxCell id="357" style="connectable=0;recursiveResize=0;strokeColor=inherit;fillColor=inherit;whiteSpace=wrap;html=1;" vertex="1" parent="353">
                    <mxGeometry x="203" width="67" height="34" as="geometry">
                        <mxRectangle width="67" height="34" as="alternateBounds"/>
                    </mxGeometry>
                </mxCell>
                <mxCell id="358" style="shape=tableRow;horizontal=0;startSize=0;swimlaneHead=0;swimlaneBody=0;top=0;left=0;bottom=0;right=0;dropTarget=0;collapsible=0;recursiveResize=0;expand=0;fontStyle=1;strokeColor=inherit;fillColor=#EAF2D3;shadow=1;" vertex="1" parent="322">
                    <mxGeometry y="242" width="270" height="34" as="geometry"/>
                </mxCell>
                <mxCell id="359" style="connectable=0;recursiveResize=0;strokeColor=inherit;fillColor=inherit;whiteSpace=wrap;html=1;" vertex="1" parent="358">
                    <mxGeometry width="68" height="34" as="geometry">
                        <mxRectangle width="68" height="34" as="alternateBounds"/>
                    </mxGeometry>
                </mxCell>
                <mxCell id="360" style="connectable=0;recursiveResize=0;strokeColor=inherit;fillColor=inherit;whiteSpace=wrap;html=1;" vertex="1" parent="358">
                    <mxGeometry x="68" width="67" height="34" as="geometry">
                        <mxRectangle width="67" height="34" as="alternateBounds"/>
                    </mxGeometry>
                </mxCell>
                <mxCell id="361" style="connectable=0;recursiveResize=0;strokeColor=inherit;fillColor=inherit;whiteSpace=wrap;html=1;" vertex="1" parent="358">
                    <mxGeometry x="135" width="68" height="34" as="geometry">
                        <mxRectangle width="68" height="34" as="alternateBounds"/>
                    </mxGeometry>
                </mxCell>
                <mxCell id="362" style="connectable=0;recursiveResize=0;strokeColor=inherit;fillColor=inherit;whiteSpace=wrap;html=1;" vertex="1" parent="358">
                    <mxGeometry x="203" width="67" height="34" as="geometry">
                        <mxRectangle width="67" height="34" as="alternateBounds"/>
                    </mxGeometry>
                </mxCell>
                <mxCell id="363" style="shape=tableRow;horizontal=0;startSize=0;swimlaneHead=0;swimlaneBody=0;top=0;left=0;bottom=0;right=0;dropTarget=0;collapsible=0;recursiveResize=0;expand=0;fontStyle=1;strokeColor=inherit;fillColor=#EAF2D3;shadow=1;" vertex="1" parent="322">
                    <mxGeometry y="276" width="270" height="34" as="geometry"/>
                </mxCell>
                <mxCell id="364" style="connectable=0;recursiveResize=0;strokeColor=inherit;fillColor=inherit;whiteSpace=wrap;html=1;" vertex="1" parent="363">
                    <mxGeometry width="68" height="34" as="geometry">
                        <mxRectangle width="68" height="34" as="alternateBounds"/>
                    </mxGeometry>
                </mxCell>
                <mxCell id="365" style="connectable=0;recursiveResize=0;strokeColor=inherit;fillColor=inherit;whiteSpace=wrap;html=1;" vertex="1" parent="363">
                    <mxGeometry x="68" width="67" height="34" as="geometry">
                        <mxRectangle width="67" height="34" as="alternateBounds"/>
                    </mxGeometry>
                </mxCell>
                <mxCell id="366" style="connectable=0;recursiveResize=0;strokeColor=inherit;fillColor=inherit;whiteSpace=wrap;html=1;" vertex="1" parent="363">
                    <mxGeometry x="135" width="68" height="34" as="geometry">
                        <mxRectangle width="68" height="34" as="alternateBounds"/>
                    </mxGeometry>
                </mxCell>
                <mxCell id="367" style="connectable=0;recursiveResize=0;strokeColor=inherit;fillColor=inherit;whiteSpace=wrap;html=1;" vertex="1" parent="363">
                    <mxGeometry x="203" width="67" height="34" as="geometry">
                        <mxRectangle width="67" height="34" as="alternateBounds"/>
                    </mxGeometry>
                </mxCell>
                <mxCell id="20" value="" style="shape=tableRow;horizontal=0;startSize=40;swimlaneHead=0;swimlaneBody=0;top=0;left=0;bottom=0;right=0;dropTarget=0;fillColor=none;collapsible=0;recursiveResize=0;expand=0;fontStyle=1;" vertex="1" parent="15">
                    <mxGeometry y="392" width="850" height="356" as="geometry"/>
                </mxCell>
                <mxCell id="21" value="" style="swimlane;swimlaneHead=0;swimlaneBody=0;fontStyle=0;connectable=0;fillColor=none;startSize=0;collapsible=0;recursiveResize=0;expand=0;fontStyle=1;" vertex="1" parent="20">
                    <mxGeometry x="40" width="271" height="356" as="geometry">
                        <mxRectangle width="271" height="356" as="alternateBounds"/>
                    </mxGeometry>
                </mxCell>
                <mxCell id="22" value="" style="swimlane;swimlaneHead=0;swimlaneBody=0;fontStyle=0;connectable=0;fillColor=none;startSize=0;collapsible=0;recursiveResize=0;expand=0;fontStyle=1;" vertex="1" parent="20">
                    <mxGeometry x="311" width="268" height="356" as="geometry">
                        <mxRectangle width="268" height="356" as="alternateBounds"/>
                    </mxGeometry>
                </mxCell>
                <mxCell id="23" value="" style="swimlane;swimlaneHead=0;swimlaneBody=0;fontStyle=0;connectable=0;fillColor=none;startSize=0;collapsible=0;recursiveResize=0;expand=0;fontStyle=1;" vertex="1" parent="20">
                    <mxGeometry x="579" width="271" height="356" as="geometry">
                        <mxRectangle width="271" height="356" as="alternateBounds"/>
                    </mxGeometry>
                </mxCell>
                <mxCell id="24" value="" style="shape=tableRow;horizontal=0;startSize=40;swimlaneHead=0;swimlaneBody=0;top=0;left=0;bottom=0;right=0;dropTarget=0;fillColor=none;collapsible=0;recursiveResize=0;expand=0;fontStyle=1;" vertex="1" parent="15">
                    <mxGeometry y="748" width="850" height="352" as="geometry"/>
                </mxCell>
                <mxCell id="25" value="" style="swimlane;swimlaneHead=0;swimlaneBody=0;fontStyle=0;connectable=0;fillColor=none;startSize=0;collapsible=0;recursiveResize=0;expand=0;fontStyle=1;" vertex="1" parent="24">
                    <mxGeometry x="40" width="271" height="352" as="geometry">
                        <mxRectangle width="271" height="352" as="alternateBounds"/>
                    </mxGeometry>
                </mxCell>
                <mxCell id="26" value="" style="swimlane;swimlaneHead=0;swimlaneBody=0;fontStyle=0;connectable=0;fillColor=none;startSize=0;collapsible=0;recursiveResize=0;expand=0;fontStyle=1;" vertex="1" parent="24">
                    <mxGeometry x="311" width="268" height="352" as="geometry">
                        <mxRectangle width="268" height="352" as="alternateBounds"/>
                    </mxGeometry>
                </mxCell>
                <mxCell id="27" value="" style="swimlane;swimlaneHead=0;swimlaneBody=0;fontStyle=0;connectable=0;fillColor=none;startSize=0;collapsible=0;recursiveResize=0;expand=0;fontStyle=1;" vertex="1" parent="24">
                    <mxGeometry x="579" width="271" height="352" as="geometry">
                        <mxRectangle width="271" height="352" as="alternateBounds"/>
                    </mxGeometry>
                </mxCell>
                <mxCell id="107" value="" style="shape=partialRectangle;html=1;whiteSpace=wrap;connectable=0;fillColor=none;top=0;left=0;bottom=0;right=0;overflow=hidden;" vertex="1" parent="1">
                    <mxGeometry x="588.5" y="400" width="90" height="117" as="geometry">
                        <mxRectangle width="90" height="117" as="alternateBounds"/>
                    </mxGeometry>
                </mxCell>
                <mxCell id="151" value="شنبه&lt;span style=&quot;color: rgba(0, 0, 0, 0); font-family: monospace; font-size: 0px; text-align: start;&quot;&gt;%3CmxGraphModel%3E%3Croot%3E%3CmxCell%20id%3D%220%22%2F%3E%3CmxCell%20id%3D%221%22%20parent%3D%220%22%2F%3E%3CmxCell%20id%3D%222%22%20value%3D%22%22%20style%3D%22shape%3Dtable%3Bhtml%3D1%3BwhiteSpace%3Dwrap%3BstartSize%3D0%3Bcontainer%3D1%3Bcollapsible%3D0%3BchildLayout%3DtableLayout%3B%22%20vertex%3D%221%22%20parent%3D%221%22%3E%3CmxGeometry%20x%3D%22578.5%22%20y%3D%22390%22%20width%3D%22270%22%20height%3D%22352%22%20as%3D%22geometry%22%2F%3E%3C%2FmxCell%3E%3CmxCell%20id%3D%223%22%20value%3D%22%22%20style%3D%22shape%3DtableRow%3Bhorizontal%3D0%3BstartSize%3D0%3BswimlaneHead%3D0%3BswimlaneBody%3D0%3Btop%3D0%3Bleft%3D0%3Bbottom%3D0%3Bright%3D0%3Bcollapsible%3D0%3BdropTarget%3D0%3BfillColor%3Dnone%3Bpoints%3D%5B%5B0%2C0.5%5D%2C%5B1%2C0.5%5D%5D%3BportConstraint%3Deastwest%3B%22%20vertex%3D%221%22%20parent%3D%222%22%3E%3CmxGeometry%20width%3D%22270%22%20height%3D%22117%22%20as%3D%22geometry%22%2F%3E%3C%2FmxCell%3E%3CmxCell%20id%3D%224%22%20value%3D%22%22%20style%3D%22shape%3DpartialRectangle%3Bhtml%3D1%3BwhiteSpace%3Dwrap%3Bconnectable%3D0%3BfillColor%3Dnone%3Btop%3D0%3Bleft%3D0%3Bbottom%3D0%3Bright%3D0%3Boverflow%3Dhidden%3B%22%20vertex%3D%221%22%20parent%3D%223%22%3E%3CmxGeometry%20width%3D%2290%22%20height%3D%22117%22%20as%3D%22geometry%22%3E%3CmxRectangle%20width%3D%2290%22%20height%3D%22117%22%20as%3D%22alternateBounds%22%2F%3E%3C%2FmxGeometry%3E%3C%2FmxCell%3E%3CmxCell%20id%3D%225%22%20value%3D%22%22%20style%3D%22shape%3DpartialRectangle%3Bhtml%3D1%3BwhiteSpace%3Dwrap%3Bconnectable%3D0%3BfillColor%3Dnone%3Btop%3D0%3Bleft%3D0%3Bbottom%3D0%3Bright%3D0%3Boverflow%3Dhidden%3B%22%20vertex%3D%221%22%20parent%3D%223%22%3E%3CmxGeometry%20x%3D%2290%22%20width%3D%2289%22%20height%3D%22117%22%20as%3D%22geometry%22%3E%3CmxRectangle%20width%3D%2289%22%20height%3D%22117%22%20as%3D%22alternateBounds%22%2F%3E%3C%2FmxGeometry%3E%3C%2FmxCell%3E%3CmxCell%20id%3D%226%22%20value%3D%22%22%20style%3D%22shape%3DpartialRectangle%3Bhtml%3D1%3BwhiteSpace%3Dwrap%3Bconnectable%3D0%3BfillColor%3Dnone%3Btop%3D0%3Bleft%3D0%3Bbottom%3D0%3Bright%3D0%3Boverflow%3Dhidden%3B%22%20vertex%3D%221%22%20parent%3D%223%22%3E%3CmxGeometry%20x%3D%22179%22%20width%3D%2291%22%20height%3D%22117%22%20as%3D%22geometry%22%3E%3CmxRectangle%20width%3D%2291%22%20height%3D%22117%22%20as%3D%22alternateBounds%22%2F%3E%3C%2FmxGeometry%3E%3C%2FmxCell%3E%3CmxCell%20id%3D%227%22%20value%3D%22%22%20style%3D%22shape%3DtableRow%3Bhorizontal%3D0%3BstartSize%3D0%3BswimlaneHead%3D0%3BswimlaneBody%3D0%3Btop%3D0%3Bleft%3D0%3Bbottom%3D0%3Bright%3D0%3Bcollapsible%3D0%3BdropTarget%3D0%3BfillColor%3Dnone%3Bpoints%3D%5B%5B0%2C0.5%5D%2C%5B1%2C0.5%5D%5D%3BportConstraint%3Deastwest%3B%22%20vertex%3D%221%22%20parent%3D%222%22%3E%3CmxGeometry%20y%3D%22117%22%20width%3D%22270%22%20height%3D%22118%22%20as%3D%22geometry%22%2F%3E%3C%2FmxCell%3E%3CmxCell%20id%3D%228%22%20value%3D%22%22%20style%3D%22shape%3DpartialRectangle%3Bhtml%3D1%3BwhiteSpace%3Dwrap%3Bconnectable%3D0%3BfillColor%3Dnone%3Btop%3D0%3Bleft%3D0%3Bbottom%3D0%3Bright%3D0%3Boverflow%3Dhidden%3B%22%20vertex%3D%221%22%20parent%3D%227%22%3E%3CmxGeometry%20width%3D%2290%22%20height%3D%22118%22%20as%3D%22geometry%22%3E%3CmxRectangle%20width%3D%2290%22%20height%3D%22118%22%20as%3D%22alternateBounds%22%2F%3E%3C%2FmxGeometry%3E%3C%2FmxCell%3E%3CmxCell%20id%3D%229%22%20value%3D%22%22%20style%3D%22shape%3DpartialRectangle%3Bhtml%3D1%3BwhiteSpace%3Dwrap%3Bconnectable%3D0%3BfillColor%3Dnone%3Btop%3D0%3Bleft%3D0%3Bbottom%3D0%3Bright%3D0%3Boverflow%3Dhidden%3B%22%20vertex%3D%221%22%20parent%3D%227%22%3E%3CmxGeometry%20x%3D%2290%22%20width%3D%2289%22%20height%3D%22118%22%20as%3D%22geometry%22%3E%3CmxRectangle%20width%3D%2289%22%20height%3D%22118%22%20as%3D%22alternateBounds%22%2F%3E%3C%2FmxGeometry%3E%3C%2FmxCell%3E%3CmxCell%20id%3D%2210%22%20value%3D%22%22%20style%3D%22shape%3DpartialRectangle%3Bhtml%3D1%3BwhiteSpace%3Dwrap%3Bconnectable%3D0%3BfillColor%3Dnone%3Btop%3D0%3Bleft%3D0%3Bbottom%3D0%3Bright%3D0%3Boverflow%3Dhidden%3B%22%20vertex%3D%221%22%20parent%3D%227%22%3E%3CmxGeometry%20x%3D%22179%22%20width%3D%2291%22%20height%3D%22118%22%20as%3D%22geometry%22%3E%3CmxRectangle%20width%3D%2291%22%20height%3D%22118%22%20as%3D%22alternateBounds%22%2F%3E%3C%2FmxGeometry%3E%3C%2FmxCell%3E%3CmxCell%20id%3D%2211%22%20value%3D%22%22%20style%3D%22shape%3DtableRow%3Bhorizontal%3D0%3BstartSize%3D0%3BswimlaneHead%3D0%3BswimlaneBody%3D0%3Btop%3D0%3Bleft%3D0%3Bbottom%3D0%3Bright%3D0%3Bcollapsible%3D0%3BdropTarget%3D0%3BfillColor%3Dnone%3Bpoints%3D%5B%5B0%2C0.5%5D%2C%5B1%2C0.5%5D%5D%3BportConstraint%3Deastwest%3B%22%20vertex%3D%221%22%20parent%3D%222%22%3E%3CmxGeometry%20y%3D%22235%22%20width%3D%22270%22%20height%3D%22117%22%20as%3D%22geometry%22%2F%3E%3C%2FmxCell%3E%3CmxCell%20id%3D%2212%22%20value%3D%22%22%20style%3D%22shape%3DpartialRectangle%3Bhtml%3D1%3BwhiteSpace%3Dwrap%3Bconnectable%3D0%3BfillColor%3Dnone%3Btop%3D0%3Bleft%3D0%3Bbottom%3D0%3Bright%3D0%3Boverflow%3Dhidden%3B%22%20vertex%3D%221%22%20parent%3D%2211%22%3E%3CmxGeometry%20width%3D%2290%22%20height%3D%22117%22%20as%3D%22geometry%22%3E%3CmxRectangle%20width%3D%2290%22%20height%3D%22117%22%20as%3D%22alternateBounds%22%2F%3E%3C%2FmxGeometry%3E%3C%2FmxCell%3E%3CmxCell%20id%3D%2213%22%20value%3D%22%22%20style%3D%22shape%3DpartialRectangle%3Bhtml%3D1%3BwhiteSpace%3Dwrap%3Bconnectable%3D0%3BfillColor%3Dnone%3Btop%3D0%3Bleft%3D0%3Bbottom%3D0%3Bright%3D0%3Boverflow%3Dhidden%3B%22%20vertex%3D%221%22%20parent%3D%2211%22%3E%3CmxGeometry%20x%3D%2290%22%20width%3D%2289%22%20height%3D%22117%22%20as%3D%22geometry%22%3E%3CmxRectangle%20width%3D%2289%22%20height%3D%22117%22%20as%3D%22alternateBounds%22%2F%3E%3C%2FmxGeometry%3E%3C%2FmxCell%3E%3CmxCell%20id%3D%2214%22%20value%3D%22%22%20style%3D%22shape%3DpartialRectangle%3Bhtml%3D1%3BwhiteSpace%3Dwrap%3Bconnectable%3D0%3BfillColor%3Dnone%3Btop%3D0%3Bleft%3D0%3Bbottom%3D0%3Bright%3D0%3Boverflow%3Dhidden%3BpointerEvents%3D1%3B%22%20vertex%3D%221%22%20parent%3D%2211%22%3E%3CmxGeometry%20x%3D%22179%22%20width%3D%2291%22%20height%3D%22117%22%20as%3D%22geometry%22%3E%3CmxRectangle%20width%3D%2291%22%20height%3D%22117%22%20as%3D%22alternateBounds%22%2F%3E%3C%2FmxGeometry%3E%3C%2FmxCell%3E%3C%2Froot%3E%3C%2FmxGraphModel%3E&lt;/span&gt;&lt;span style=&quot;color: rgba(0, 0, 0, 0); font-family: monospace; font-size: 0px; text-align: start;&quot;&gt;%3CmxGraphModel%3E%3Croot%3E%3CmxCell%20id%3D%220%22%2F%3E%3CmxCell%20id%3D%221%22%20parent%3D%220%22%2F%3E%3CmxCell%20id%3D%222%22%20value%3D%22%22%20style%3D%22shape%3Dtable%3Bhtml%3D1%3BwhiteSpace%3Dwrap%3BstartSize%3D0%3Bcontainer%3D1%3Bcollapsible%3D0%3BchildLayout%3DtableLayout%3B%22%20vertex%3D%221%22%20parent%3D%221%22%3E%3CmxGeometry%20x%3D%22578.5%22%20y%3D%22390%22%20width%3D%22270%22%20height%3D%22352%22%20as%3D%22geometry%22%2F%3E%3C%2FmxCell%3E%3CmxCell%20id%3D%223%22%20value%3D%22%22%20style%3D%22shape%3DtableRow%3Bhorizontal%3D0%3BstartSize%3D0%3BswimlaneHead%3D0%3BswimlaneBody%3D0%3Btop%3D0%3Bleft%3D0%3Bbottom%3D0%3Bright%3D0%3Bcollapsible%3D0%3BdropTarget%3D0%3BfillColor%3Dnone%3Bpoints%3D%5B%5B0%2C0.5%5D%2C%5B1%2C0.5%5D%5D%3BportConstraint%3Deastwest%3B%22%20vertex%3D%221%22%20parent%3D%222%22%3E%3CmxGeometry%20width%3D%22270%22%20height%3D%22117%22%20as%3D%22geometry%22%2F%3E%3C%2FmxCell%3E%3CmxCell%20id%3D%224%22%20value%3D%22%22%20style%3D%22shape%3DpartialRectangle%3Bhtml%3D1%3BwhiteSpace%3Dwrap%3Bconnectable%3D0%3BfillColor%3Dnone%3Btop%3D0%3Bleft%3D0%3Bbottom%3D0%3Bright%3D0%3Boverflow%3Dhidden%3B%22%20vertex%3D%221%22%20parent%3D%223%22%3E%3CmxGeometry%20width%3D%2290%22%20height%3D%22117%22%20as%3D%22geometry%22%3E%3CmxRectangle%20width%3D%2290%22%20height%3D%22117%22%20as%3D%22alternateBounds%22%2F%3E%3C%2FmxGeometry%3E%3C%2FmxCell%3E%3CmxCell%20id%3D%225%22%20value%3D%22%22%20style%3D%22shape%3DpartialRectangle%3Bhtml%3D1%3BwhiteSpace%3Dwrap%3Bconnectable%3D0%3BfillColor%3Dnone%3Btop%3D0%3Bleft%3D0%3Bbottom%3D0%3Bright%3D0%3Boverflow%3Dhidden%3B%22%20vertex%3D%221%22%20parent%3D%223%22%3E%3CmxGeometry%20x%3D%2290%22%20width%3D%2289%22%20height%3D%22117%22%20as%3D%22geometry%22%3E%3CmxRectangle%20width%3D%2289%22%20height%3D%22117%22%20as%3D%22alternateBounds%22%2F%3E%3C%2FmxGeometry%3E%3C%2FmxCell%3E%3CmxCell%20id%3D%226%22%20value%3D%22%22%20style%3D%22shape%3DpartialRectangle%3Bhtml%3D1%3BwhiteSpace%3Dwrap%3Bconnectable%3D0%3BfillColor%3Dnone%3Btop%3D0%3Bleft%3D0%3Bbottom%3D0%3Bright%3D0%3Boverflow%3Dhidden%3B%22%20vertex%3D%221%22%20parent%3D%223%22%3E%3CmxGeometry%20x%3D%22179%22%20width%3D%2291%22%20height%3D%22117%22%20as%3D%22geometry%22%3E%3CmxRectangle%20width%3D%2291%22%20height%3D%22117%22%20as%3D%22alternateBounds%22%2F%3E%3C%2FmxGeometry%3E%3C%2FmxCell%3E%3CmxCell%20id%3D%227%22%20value%3D%22%22%20style%3D%22shape%3DtableRow%3Bhorizontal%3D0%3BstartSize%3D0%3BswimlaneHead%3D0%3BswimlaneBody%3D0%3Btop%3D0%3Bleft%3D0%3Bbottom%3D0%3Bright%3D0%3Bcollapsible%3D0%3BdropTarget%3D0%3BfillColor%3Dnone%3Bpoints%3D%5B%5B0%2C0.5%5D%2C%5B1%2C0.5%5D%5D%3BportConstraint%3Deastwest%3B%22%20vertex%3D%221%22%20parent%3D%222%22%3E%3CmxGeometry%20y%3D%22117%22%20width%3D%22270%22%20height%3D%22118%22%20as%3D%22geometry%22%2F%3E%3C%2FmxCell%3E%3CmxCell%20id%3D%228%22%20value%3D%22%22%20style%3D%22shape%3DpartialRectangle%3Bhtml%3D1%3BwhiteSpace%3Dwrap%3Bconnectable%3D0%3BfillColor%3Dnone%3Btop%3D0%3Bleft%3D0%3Bbottom%3D0%3Bright%3D0%3Boverflow%3Dhidden%3B%22%20vertex%3D%221%22%20parent%3D%227%22%3E%3CmxGeometry%20width%3D%2290%22%20height%3D%22118%22%20as%3D%22geometry%22%3E%3CmxRectangle%20width%3D%2290%22%20height%3D%22118%22%20as%3D%22alternateBounds%22%2F%3E%3C%2FmxGeometry%3E%3C%2FmxCell%3E%3CmxCell%20id%3D%229%22%20value%3D%22%22%20style%3D%22shape%3DpartialRectangle%3Bhtml%3D1%3BwhiteSpace%3Dwrap%3Bconnectable%3D0%3BfillColor%3Dnone%3Btop%3D0%3Bleft%3D0%3Bbottom%3D0%3Bright%3D0%3Boverflow%3Dhidden%3B%22%20vertex%3D%221%22%20parent%3D%227%22%3E%3CmxGeometry%20x%3D%2290%22%20width%3D%2289%22%20height%3D%22118%22%20as%3D%22geometry%22%3E%3CmxRectangle%20width%3D%2289%22%20height%3D%22118%22%20as%3D%22alternateBounds%22%2F%3E%3C%2FmxGeometry%3E%3C%2FmxCell%3E%3CmxCell%20id%3D%2210%22%20value%3D%22%22%20style%3D%22shape%3DpartialRectangle%3Bhtml%3D1%3BwhiteSpace%3Dwrap%3Bconnectable%3D0%3BfillColor%3Dnone%3Btop%3D0%3Bleft%3D0%3Bbottom%3D0%3Bright%3D0%3Boverflow%3Dhidden%3B%22%20vertex%3D%221%22%20parent%3D%227%22%3E%3CmxGeometry%20x%3D%22179%22%20width%3D%2291%22%20height%3D%22118%22%20as%3D%22geometry%22%3E%3CmxRectangle%20width%3D%2291%22%20height%3D%22118%22%20as%3D%22alternateBounds%22%2F%3E%3C%2FmxGeometry%3E%3C%2FmxCell%3E%3CmxCell%20id%3D%2211%22%20value%3D%22%22%20style%3D%22shape%3DtableRow%3Bhorizontal%3D0%3BstartSize%3D0%3BswimlaneHead%3D0%3BswimlaneBody%3D0%3Btop%3D0%3Bleft%3D0%3Bbottom%3D0%3Bright%3D0%3Bcollapsible%3D0%3BdropTarget%3D0%3BfillColor%3Dnone%3Bpoints%3D%5B%5B0%2C0.5%5D%2C%5B1%2C0.5%5D%5D%3BportConstraint%3Deastwest%3B%22%20vertex%3D%221%22%20parent%3D%222%22%3E%3CmxGeometry%20y%3D%22235%22%20width%3D%22270%22%20height%3D%22117%22%20as%3D%22geometry%22%2F%3E%3C%2FmxCell%3E%3CmxCell%20id%3D%2212%22%20value%3D%22%22%20style%3D%22shape%3DpartialRectangle%3Bhtml%3D1%3BwhiteSpace%3Dwrap%3Bconnectable%3D0%3BfillColor%3Dnone%3Btop%3D0%3Bleft%3D0%3Bbottom%3D0%3Bright%3D0%3Boverflow%3Dhidden%3B%22%20vertex%3D%221%22%20parent%3D%2211%22%3E%3CmxGeometry%20width%3D%2290%22%20height%3D%22117%22%20as%3D%22geometry%22%3E%3CmxRectangle%20width%3D%2290%22%20height%3D%22117%22%20as%3D%22alternateBounds%22%2F%3E%3C%2FmxGeometry%3E%3C%2FmxCell%3E%3CmxCell%20id%3D%2213%22%20value%3D%22%22%20style%3D%22shape%3DpartialRectangle%3Bhtml%3D1%3BwhiteSpace%3Dwrap%3Bconnectable%3D0%3BfillColor%3Dnone%3Btop%3D0%3Bleft%3D0%3Bbottom%3D0%3Bright%3D0%3Boverflow%3Dhidden%3B%22%20vertex%3D%221%22%20parent%3D%2211%22%3E%3CmxGeometry%20x%3D%2290%22%20width%3D%2289%22%20height%3D%22117%22%20as%3D%22geometry%22%3E%3CmxRectangle%20width%3D%2289%22%20height%3D%22117%22%20as%3D%22alternateBounds%22%2F%3E%3C%2FmxGeometry%3E%3C%2FmxCell%3E%3CmxCell%20id%3D%2214%22%20value%3D%22%22%20style%3D%22shape%3DpartialRectangle%3Bhtml%3D1%3BwhiteSpace%3Dwrap%3Bconnectable%3D0%3BfillColor%3Dnone%3Btop%3D0%3Bleft%3D0%3Bbottom%3D0%3Bright%3D0%3Boverflow%3Dhidden%3BpointerEvents%3D1%3B%22%20vertex%3D%221%22%20parent%3D%2211%22%3E%3CmxGeometry%20x%3D%22179%22%20width%3D%2291%22%20height%3D%22117%22%20as%3D%22geometry%22%3E%3CmxRectangle%20width%3D%2291%22%20height%3D%22117%22%20as%3D%22alternateBounds%22%2F%3E%3C%2FmxGeometry%3E%3C%2FmxCell%3E%3C%2Froot%3E%3C%2FmxGraphModel%3E&lt;/span&gt;&lt;span style=&quot;color: rgba(0, 0, 0, 0); font-family: monospace; font-size: 0px; text-align: start;&quot;&gt;%3CmxGraphModel%3E%3Croot%3E%3CmxCell%20id%3D%220%22%2F%3E%3CmxCell%20id%3D%221%22%20parent%3D%220%22%2F%3E%3CmxCell%20id%3D%222%22%20value%3D%22%22%20style%3D%22shape%3Dtable%3Bhtml%3D1%3BwhiteSpace%3Dwrap%3BstartSize%3D0%3Bcontainer%3D1%3Bcollapsible%3D0%3BchildLayout%3DtableLayout%3B%22%20vertex%3D%221%22%20parent%3D%221%22%3E%3CmxGeometry%20x%3D%22578.5%22%20y%3D%22390%22%20width%3D%22270%22%20height%3D%22352%22%20as%3D%22geometry%22%2F%3E%3C%2FmxCell%3E%3CmxCell%20id%3D%223%22%20value%3D%22%22%20style%3D%22shape%3DtableRow%3Bhorizontal%3D0%3BstartSize%3D0%3BswimlaneHead%3D0%3BswimlaneBody%3D0%3Btop%3D0%3Bleft%3D0%3Bbottom%3D0%3Bright%3D0%3Bcollapsible%3D0%3BdropTarget%3D0%3BfillColor%3Dnone%3Bpoints%3D%5B%5B0%2C0.5%5D%2C%5B1%2C0.5%5D%5D%3BportConstraint%3Deastwest%3B%22%20vertex%3D%221%22%20parent%3D%222%22%3E%3CmxGeometry%20width%3D%22270%22%20height%3D%22117%22%20as%3D%22geometry%22%2F%3E%3C%2FmxCell%3E%3CmxCell%20id%3D%224%22%20value%3D%22%22%20style%3D%22shape%3DpartialRectangle%3Bhtml%3D1%3BwhiteSpace%3Dwrap%3Bconnectable%3D0%3BfillColor%3Dnone%3Btop%3D0%3Bleft%3D0%3Bbottom%3D0%3Bright%3D0%3Boverflow%3Dhidden%3B%22%20vertex%3D%221%22%20parent%3D%223%22%3E%3CmxGeometry%20width%3D%2290%22%20height%3D%22117%22%20as%3D%22geometry%22%3E%3CmxRectangle%20width%3D%2290%22%20height%3D%22117%22%20as%3D%22alternateBounds%22%2F%3E%3C%2FmxGeometry%3E%3C%2FmxCell%3E%3CmxCell%20id%3D%225%22%20value%3D%22%22%20style%3D%22shape%3DpartialRectangle%3Bhtml%3D1%3BwhiteSpace%3Dwrap%3Bconnectable%3D0%3BfillColor%3Dnone%3Btop%3D0%3Bleft%3D0%3Bbottom%3D0%3Bright%3D0%3Boverflow%3Dhidden%3B%22%20vertex%3D%221%22%20parent%3D%223%22%3E%3CmxGeometry%20x%3D%2290%22%20width%3D%2289%22%20height%3D%22117%22%20as%3D%22geometry%22%3E%3CmxRectangle%20width%3D%2289%22%20height%3D%22117%22%20as%3D%22alternateBounds%22%2F%3E%3C%2FmxGeometry%3E%3C%2FmxCell%3E%3CmxCell%20id%3D%226%22%20value%3D%22%22%20style%3D%22shape%3DpartialRectangle%3Bhtml%3D1%3BwhiteSpace%3Dwrap%3Bconnectable%3D0%3BfillColor%3Dnone%3Btop%3D0%3Bleft%3D0%3Bbottom%3D0%3Bright%3D0%3Boverflow%3Dhidden%3B%22%20vertex%3D%221%22%20parent%3D%223%22%3E%3CmxGeometry%20x%3D%22179%22%20width%3D%2291%22%20height%3D%22117%22%20as%3D%22geometry%22%3E%3CmxRectangle%20width%3D%2291%22%20height%3D%22117%22%20as%3D%22alternateBounds%22%2F%3E%3C%2FmxGeometry%3E%3C%2FmxCell%3E%3CmxCell%20id%3D%227%22%20value%3D%22%22%20style%3D%22shape%3DtableRow%3Bhorizontal%3D0%3BstartSize%3D0%3BswimlaneHead%3D0%3BswimlaneBody%3D0%3Btop%3D0%3Bleft%3D0%3Bbottom%3D0%3Bright%3D0%3Bcollapsible%3D0%3BdropTarget%3D0%3BfillColor%3Dnone%3Bpoints%3D%5B%5B0%2C0.5%5D%2C%5B1%2C0.5%5D%5D%3BportConstraint%3Deastwest%3B%22%20vertex%3D%221%22%20parent%3D%222%22%3E%3CmxGeometry%20y%3D%22117%22%20width%3D%22270%22%20height%3D%22118%22%20as%3D%22geometry%22%2F%3E%3C%2FmxCell%3E%3CmxCell%20id%3D%228%22%20value%3D%22%22%20style%3D%22shape%3DpartialRectangle%3Bhtml%3D1%3BwhiteSpace%3Dwrap%3Bconnectable%3D0%3BfillColor%3Dnone%3Btop%3D0%3Bleft%3D0%3Bbottom%3D0%3Bright%3D0%3Boverflow%3Dhidden%3B%22%20vertex%3D%221%22%20parent%3D%227%22%3E%3CmxGeometry%20width%3D%2290%22%20height%3D%22118%22%20as%3D%22geometry%22%3E%3CmxRectangle%20width%3D%2290%22%20height%3D%22118%22%20as%3D%22alternateBounds%22%2F%3E%3C%2FmxGeometry%3E%3C%2FmxCell%3E%3CmxCell%20id%3D%229%22%20value%3D%22%22%20style%3D%22shape%3DpartialRectangle%3Bhtml%3D1%3BwhiteSpace%3Dwrap%3Bconnectable%3D0%3BfillColor%3Dnone%3Btop%3D0%3Bleft%3D0%3Bbottom%3D0%3Bright%3D0%3Boverflow%3Dhidden%3B%22%20vertex%3D%221%22%20parent%3D%227%22%3E%3CmxGeometry%20x%3D%2290%22%20width%3D%2289%22%20height%3D%22118%22%20as%3D%22geometry%22%3E%3CmxRectangle%20width%3D%2289%22%20height%3D%22118%22%20as%3D%22alternateBounds%22%2F%3E%3C%2FmxGeometry%3E%3C%2FmxCell%3E%3CmxCell%20id%3D%2210%22%20value%3D%22%22%20style%3D%22shape%3DpartialRectangle%3Bhtml%3D1%3BwhiteSpace%3Dwrap%3Bconnectable%3D0%3BfillColor%3Dnone%3Btop%3D0%3Bleft%3D0%3Bbottom%3D0%3Bright%3D0%3Boverflow%3Dhidden%3B%22%20vertex%3D%221%22%20parent%3D%227%22%3E%3CmxGeometry%20x%3D%22179%22%20width%3D%2291%22%20height%3D%22118%22%20as%3D%22geometry%22%3E%3CmxRectangle%20width%3D%2291%22%20height%3D%22118%22%20as%3D%22alternateBounds%22%2F%3E%3C%2FmxGeometry%3E%3C%2FmxCell%3E%3CmxCell%20id%3D%2211%22%20value%3D%22%22%20style%3D%22shape%3DtableRow%3Bhorizontal%3D0%3BstartSize%3D0%3BswimlaneHead%3D0%3BswimlaneBody%3D0%3Btop%3D0%3Bleft%3D0%3Bbottom%3D0%3Bright%3D0%3Bcollapsible%3D0%3BdropTarget%3D0%3BfillColor%3Dnone%3Bpoints%3D%5B%5B0%2C0.5%5D%2C%5B1%2C0.5%5D%5D%3BportConstraint%3Deastwest%3B%22%20vertex%3D%221%22%20parent%3D%222%22%3E%3CmxGeometry%20y%3D%22235%22%20width%3D%22270%22%20height%3D%22117%22%20as%3D%22geometry%22%2F%3E%3C%2FmxCell%3E%3CmxCell%20id%3D%2212%22%20value%3D%22%22%20style%3D%22shape%3DpartialRectangle%3Bhtml%3D1%3BwhiteSpace%3Dwrap%3Bconnectable%3D0%3BfillColor%3Dnone%3Btop%3D0%3Bleft%3D0%3Bbottom%3D0%3Bright%3D0%3Boverflow%3Dhidden%3B%22%20vertex%3D%221%22%20parent%3D%2211%22%3E%3CmxGeometry%20width%3D%2290%22%20height%3D%22117%22%20as%3D%22geometry%22%3E%3CmxRectangle%20width%3D%2290%22%20height%3D%22117%22%20as%3D%22alternateBounds%22%2F%3E%3C%2FmxGeometry%3E%3C%2FmxCell%3E%3CmxCell%20id%3D%2213%22%20value%3D%22%22%20style%3D%22shape%3DpartialRectangle%3Bhtml%3D1%3BwhiteSpace%3Dwrap%3Bconnectable%3D0%3BfillColor%3Dnone%3Btop%3D0%3Bleft%3D0%3Bbottom%3D0%3Bright%3D0%3Boverflow%3Dhidden%3B%22%20vertex%3D%221%22%20parent%3D%2211%22%3E%3CmxGeometry%20x%3D%2290%22%20width%3D%2289%22%20height%3D%22117%22%20as%3D%22geometry%22%3E%3CmxRectangle%20width%3D%2289%22%20height%3D%22117%22%20as%3D%22alternateBounds%22%2F%3E%3C%2FmxGeometry%3E%3C%2FmxCell%3E%3CmxCell%20id%3D%2214%22%20value%3D%22%22%20style%3D%22shape%3DpartialRectangle%3Bhtml%3D1%3BwhiteSpace%3Dwrap%3Bconnectable%3D0%3BfillColor%3Dnone%3Btop%3D0%3Bleft%3D0%3Bbottom%3D0%3Bright%3D0%3Boverflow%3Dhidden%3BpointerEvents%3D1%3B%22%20vertex%3D%221%22%20parent%3D%2211%22%3E%3CmxGeometry%20x%3D%22179%22%20width%3D%2291%22%20height%3D%22117%22%20as%3D%22geometry%22%3E%3CmxRectangle%20width%3D%2291%22%20height%3D%22117%22%20as%3D%22alternateBounds%22%2F%3E%3C%2FmxGeometry%3E%3C%2FmxCell%3E%3C%2Froot%3E%3C%2FmxGraphModel%3E&lt;/span&gt;" style="text;strokeColor=none;align=center;fillColor=none;html=1;verticalAlign=middle;whiteSpace=wrap;rounded=0;rotation=-90;" vertex="1" parent="1">
                    <mxGeometry x="-10" y="190" width="60" height="30" as="geometry"/>
                </mxCell>
                <mxCell id="160" value="شنبه&lt;span style=&quot;color: rgba(0, 0, 0, 0); font-family: monospace; font-size: 0px; text-align: start;&quot;&gt;%3CmxGraphModel%3E%3Croot%3E%3CmxCell%20id%3D%220%22%2F%3E%3CmxCell%20id%3D%221%22%20parent%3D%220%22%2F%3E%3CmxCell%20id%3D%222%22%20value%3D%22%22%20style%3D%22shape%3Dtable%3Bhtml%3D1%3BwhiteSpace%3Dwrap%3BstartSize%3D0%3Bcontainer%3D1%3Bcollapsible%3D0%3BchildLayout%3DtableLayout%3B%22%20vertex%3D%221%22%20parent%3D%221%22%3E%3CmxGeometry%20x%3D%22578.5%22%20y%3D%22390%22%20width%3D%22270%22%20height%3D%22352%22%20as%3D%22geometry%22%2F%3E%3C%2FmxCell%3E%3CmxCell%20id%3D%223%22%20value%3D%22%22%20style%3D%22shape%3DtableRow%3Bhorizontal%3D0%3BstartSize%3D0%3BswimlaneHead%3D0%3BswimlaneBody%3D0%3Btop%3D0%3Bleft%3D0%3Bbottom%3D0%3Bright%3D0%3Bcollapsible%3D0%3BdropTarget%3D0%3BfillColor%3Dnone%3Bpoints%3D%5B%5B0%2C0.5%5D%2C%5B1%2C0.5%5D%5D%3BportConstraint%3Deastwest%3B%22%20vertex%3D%221%22%20parent%3D%222%22%3E%3CmxGeometry%20width%3D%22270%22%20height%3D%22117%22%20as%3D%22geometry%22%2F%3E%3C%2FmxCell%3E%3CmxCell%20id%3D%224%22%20value%3D%22%22%20style%3D%22shape%3DpartialRectangle%3Bhtml%3D1%3BwhiteSpace%3Dwrap%3Bconnectable%3D0%3BfillColor%3Dnone%3Btop%3D0%3Bleft%3D0%3Bbottom%3D0%3Bright%3D0%3Boverflow%3Dhidden%3B%22%20vertex%3D%221%22%20parent%3D%223%22%3E%3CmxGeometry%20width%3D%2290%22%20height%3D%22117%22%20as%3D%22geometry%22%3E%3CmxRectangle%20width%3D%2290%22%20height%3D%22117%22%20as%3D%22alternateBounds%22%2F%3E%3C%2FmxGeometry%3E%3C%2FmxCell%3E%3CmxCell%20id%3D%225%22%20value%3D%22%22%20style%3D%22shape%3DpartialRectangle%3Bhtml%3D1%3BwhiteSpace%3Dwrap%3Bconnectable%3D0%3BfillColor%3Dnone%3Btop%3D0%3Bleft%3D0%3Bbottom%3D0%3Bright%3D0%3Boverflow%3Dhidden%3B%22%20vertex%3D%221%22%20parent%3D%223%22%3E%3CmxGeometry%20x%3D%2290%22%20width%3D%2289%22%20height%3D%22117%22%20as%3D%22geometry%22%3E%3CmxRectangle%20width%3D%2289%22%20height%3D%22117%22%20as%3D%22alternateBounds%22%2F%3E%3C%2FmxGeometry%3E%3C%2FmxCell%3E%3CmxCell%20id%3D%226%22%20value%3D%22%22%20style%3D%22shape%3DpartialRectangle%3Bhtml%3D1%3BwhiteSpace%3Dwrap%3Bconnectable%3D0%3BfillColor%3Dnone%3Btop%3D0%3Bleft%3D0%3Bbottom%3D0%3Bright%3D0%3Boverflow%3Dhidden%3B%22%20vertex%3D%221%22%20parent%3D%223%22%3E%3CmxGeometry%20x%3D%22179%22%20width%3D%2291%22%20height%3D%22117%22%20as%3D%22geometry%22%3E%3CmxRectangle%20width%3D%2291%22%20height%3D%22117%22%20as%3D%22alternateBounds%22%2F%3E%3C%2FmxGeometry%3E%3C%2FmxCell%3E%3CmxCell%20id%3D%227%22%20value%3D%22%22%20style%3D%22shape%3DtableRow%3Bhorizontal%3D0%3BstartSize%3D0%3BswimlaneHead%3D0%3BswimlaneBody%3D0%3Btop%3D0%3Bleft%3D0%3Bbottom%3D0%3Bright%3D0%3Bcollapsible%3D0%3BdropTarget%3D0%3BfillColor%3Dnone%3Bpoints%3D%5B%5B0%2C0.5%5D%2C%5B1%2C0.5%5D%5D%3BportConstraint%3Deastwest%3B%22%20vertex%3D%221%22%20parent%3D%222%22%3E%3CmxGeometry%20y%3D%22117%22%20width%3D%22270%22%20height%3D%22118%22%20as%3D%22geometry%22%2F%3E%3C%2FmxCell%3E%3CmxCell%20id%3D%228%22%20value%3D%22%22%20style%3D%22shape%3DpartialRectangle%3Bhtml%3D1%3BwhiteSpace%3Dwrap%3Bconnectable%3D0%3BfillColor%3Dnone%3Btop%3D0%3Bleft%3D0%3Bbottom%3D0%3Bright%3D0%3Boverflow%3Dhidden%3B%22%20vertex%3D%221%22%20parent%3D%227%22%3E%3CmxGeometry%20width%3D%2290%22%20height%3D%22118%22%20as%3D%22geometry%22%3E%3CmxRectangle%20width%3D%2290%22%20height%3D%22118%22%20as%3D%22alternateBounds%22%2F%3E%3C%2FmxGeometry%3E%3C%2FmxCell%3E%3CmxCell%20id%3D%229%22%20value%3D%22%22%20style%3D%22shape%3DpartialRectangle%3Bhtml%3D1%3BwhiteSpace%3Dwrap%3Bconnectable%3D0%3BfillColor%3Dnone%3Btop%3D0%3Bleft%3D0%3Bbottom%3D0%3Bright%3D0%3Boverflow%3Dhidden%3B%22%20vertex%3D%221%22%20parent%3D%227%22%3E%3CmxGeometry%20x%3D%2290%22%20width%3D%2289%22%20height%3D%22118%22%20as%3D%22geometry%22%3E%3CmxRectangle%20width%3D%2289%22%20height%3D%22118%22%20as%3D%22alternateBounds%22%2F%3E%3C%2FmxGeometry%3E%3C%2FmxCell%3E%3CmxCell%20id%3D%2210%22%20value%3D%22%22%20style%3D%22shape%3DpartialRectangle%3Bhtml%3D1%3BwhiteSpace%3Dwrap%3Bconnectable%3D0%3BfillColor%3Dnone%3Btop%3D0%3Bleft%3D0%3Bbottom%3D0%3Bright%3D0%3Boverflow%3Dhidden%3B%22%20vertex%3D%221%22%20parent%3D%227%22%3E%3CmxGeometry%20x%3D%22179%22%20width%3D%2291%22%20height%3D%22118%22%20as%3D%22geometry%22%3E%3CmxRectangle%20width%3D%2291%22%20height%3D%22118%22%20as%3D%22alternateBounds%22%2F%3E%3C%2FmxGeometry%3E%3C%2FmxCell%3E%3CmxCell%20id%3D%2211%22%20value%3D%22%22%20style%3D%22shape%3DtableRow%3Bhorizontal%3D0%3BstartSize%3D0%3BswimlaneHead%3D0%3BswimlaneBody%3D0%3Btop%3D0%3Bleft%3D0%3Bbottom%3D0%3Bright%3D0%3Bcollapsible%3D0%3BdropTarget%3D0%3BfillColor%3Dnone%3Bpoints%3D%5B%5B0%2C0.5%5D%2C%5B1%2C0.5%5D%5D%3BportConstraint%3Deastwest%3B%22%20vertex%3D%221%22%20parent%3D%222%22%3E%3CmxGeometry%20y%3D%22235%22%20width%3D%22270%22%20height%3D%22117%22%20as%3D%22geometry%22%2F%3E%3C%2FmxCell%3E%3CmxCell%20id%3D%2212%22%20value%3D%22%22%20style%3D%22shape%3DpartialRectangle%3Bhtml%3D1%3BwhiteSpace%3Dwrap%3Bconnectable%3D0%3BfillColor%3Dnone%3Btop%3D0%3Bleft%3D0%3Bbottom%3D0%3Bright%3D0%3Boverflow%3Dhidden%3B%22%20vertex%3D%221%22%20parent%3D%2211%22%3E%3CmxGeometry%20width%3D%2290%22%20height%3D%22117%22%20as%3D%22geometry%22%3E%3CmxRectangle%20width%3D%2290%22%20height%3D%22117%22%20as%3D%22alternateBounds%22%2F%3E%3C%2FmxGeometry%3E%3C%2FmxCell%3E%3CmxCell%20id%3D%2213%22%20value%3D%22%22%20style%3D%22shape%3DpartialRectangle%3Bhtml%3D1%3BwhiteSpace%3Dwrap%3Bconnectable%3D0%3BfillColor%3Dnone%3Btop%3D0%3Bleft%3D0%3Bbottom%3D0%3Bright%3D0%3Boverflow%3Dhidden%3B%22%20vertex%3D%221%22%20parent%3D%2211%22%3E%3CmxGeometry%20x%3D%2290%22%20width%3D%2289%22%20height%3D%22117%22%20as%3D%22geometry%22%3E%3CmxRectangle%20width%3D%2289%22%20height%3D%22117%22%20as%3D%22alternateBounds%22%2F%3E%3C%2FmxGeometry%3E%3C%2FmxCell%3E%3CmxCell%20id%3D%2214%22%20value%3D%22%22%20style%3D%22shape%3DpartialRectangle%3Bhtml%3D1%3BwhiteSpace%3Dwrap%3Bconnectable%3D0%3BfillColor%3Dnone%3Btop%3D0%3Bleft%3D0%3Bbottom%3D0%3Bright%3D0%3Boverflow%3Dhidden%3BpointerEvents%3D1%3B%22%20vertex%3D%221%22%20parent%3D%2211%22%3E%3CmxGeometry%20x%3D%22179%22%20width%3D%2291%22%20height%3D%22117%22%20as%3D%22geometry%22%3E%3CmxRectangle%20width%3D%2291%22%20height%3D%22117%22%20as%3D%22alternateBounds%22%2F%3E%3C%2FmxGeometry%3E%3C%2FmxCell%3E%3C%2Froot%3E%3C%2FmxGraphModel%3E&lt;/span&gt;&lt;span style=&quot;color: rgba(0, 0, 0, 0); font-family: monospace; font-size: 0px; text-align: start;&quot;&gt;%3CmxGraphModel%3E%3Croot%3E%3CmxCell%20id%3D%220%22%2F%3E%3CmxCell%20id%3D%221%22%20parent%3D%220%22%2F%3E%3CmxCell%20id%3D%222%22%20value%3D%22%22%20style%3D%22shape%3Dtable%3Bhtml%3D1%3BwhiteSpace%3Dwrap%3BstartSize%3D0%3Bcontainer%3D1%3Bcollapsible%3D0%3BchildLayout%3DtableLayout%3B%22%20vertex%3D%221%22%20parent%3D%221%22%3E%3CmxGeometry%20x%3D%22578.5%22%20y%3D%22390%22%20width%3D%22270%22%20height%3D%22352%22%20as%3D%22geometry%22%2F%3E%3C%2FmxCell%3E%3CmxCell%20id%3D%223%22%20value%3D%22%22%20style%3D%22shape%3DtableRow%3Bhorizontal%3D0%3BstartSize%3D0%3BswimlaneHead%3D0%3BswimlaneBody%3D0%3Btop%3D0%3Bleft%3D0%3Bbottom%3D0%3Bright%3D0%3Bcollapsible%3D0%3BdropTarget%3D0%3BfillColor%3Dnone%3Bpoints%3D%5B%5B0%2C0.5%5D%2C%5B1%2C0.5%5D%5D%3BportConstraint%3Deastwest%3B%22%20vertex%3D%221%22%20parent%3D%222%22%3E%3CmxGeometry%20width%3D%22270%22%20height%3D%22117%22%20as%3D%22geometry%22%2F%3E%3C%2FmxCell%3E%3CmxCell%20id%3D%224%22%20value%3D%22%22%20style%3D%22shape%3DpartialRectangle%3Bhtml%3D1%3BwhiteSpace%3Dwrap%3Bconnectable%3D0%3BfillColor%3Dnone%3Btop%3D0%3Bleft%3D0%3Bbottom%3D0%3Bright%3D0%3Boverflow%3Dhidden%3B%22%20vertex%3D%221%22%20parent%3D%223%22%3E%3CmxGeometry%20width%3D%2290%22%20height%3D%22117%22%20as%3D%22geometry%22%3E%3CmxRectangle%20width%3D%2290%22%20height%3D%22117%22%20as%3D%22alternateBounds%22%2F%3E%3C%2FmxGeometry%3E%3C%2FmxCell%3E%3CmxCell%20id%3D%225%22%20value%3D%22%22%20style%3D%22shape%3DpartialRectangle%3Bhtml%3D1%3BwhiteSpace%3Dwrap%3Bconnectable%3D0%3BfillColor%3Dnone%3Btop%3D0%3Bleft%3D0%3Bbottom%3D0%3Bright%3D0%3Boverflow%3Dhidden%3B%22%20vertex%3D%221%22%20parent%3D%223%22%3E%3CmxGeometry%20x%3D%2290%22%20width%3D%2289%22%20height%3D%22117%22%20as%3D%22geometry%22%3E%3CmxRectangle%20width%3D%2289%22%20height%3D%22117%22%20as%3D%22alternateBounds%22%2F%3E%3C%2FmxGeometry%3E%3C%2FmxCell%3E%3CmxCell%20id%3D%226%22%20value%3D%22%22%20style%3D%22shape%3DpartialRectangle%3Bhtml%3D1%3BwhiteSpace%3Dwrap%3Bconnectable%3D0%3BfillColor%3Dnone%3Btop%3D0%3Bleft%3D0%3Bbottom%3D0%3Bright%3D0%3Boverflow%3Dhidden%3B%22%20vertex%3D%221%22%20parent%3D%223%22%3E%3CmxGeometry%20x%3D%22179%22%20width%3D%2291%22%20height%3D%22117%22%20as%3D%22geometry%22%3E%3CmxRectangle%20width%3D%2291%22%20height%3D%22117%22%20as%3D%22alternateBounds%22%2F%3E%3C%2FmxGeometry%3E%3C%2FmxCell%3E%3CmxCell%20id%3D%227%22%20value%3D%22%22%20style%3D%22shape%3DtableRow%3Bhorizontal%3D0%3BstartSize%3D0%3BswimlaneHead%3D0%3BswimlaneBody%3D0%3Btop%3D0%3Bleft%3D0%3Bbottom%3D0%3Bright%3D0%3Bcollapsible%3D0%3BdropTarget%3D0%3BfillColor%3Dnone%3Bpoints%3D%5B%5B0%2C0.5%5D%2C%5B1%2C0.5%5D%5D%3BportConstraint%3Deastwest%3B%22%20vertex%3D%221%22%20parent%3D%222%22%3E%3CmxGeometry%20y%3D%22117%22%20width%3D%22270%22%20height%3D%22118%22%20as%3D%22geometry%22%2F%3E%3C%2FmxCell%3E%3CmxCell%20id%3D%228%22%20value%3D%22%22%20style%3D%22shape%3DpartialRectangle%3Bhtml%3D1%3BwhiteSpace%3Dwrap%3Bconnectable%3D0%3BfillColor%3Dnone%3Btop%3D0%3Bleft%3D0%3Bbottom%3D0%3Bright%3D0%3Boverflow%3Dhidden%3B%22%20vertex%3D%221%22%20parent%3D%227%22%3E%3CmxGeometry%20width%3D%2290%22%20height%3D%22118%22%20as%3D%22geometry%22%3E%3CmxRectangle%20width%3D%2290%22%20height%3D%22118%22%20as%3D%22alternateBounds%22%2F%3E%3C%2FmxGeometry%3E%3C%2FmxCell%3E%3CmxCell%20id%3D%229%22%20value%3D%22%22%20style%3D%22shape%3DpartialRectangle%3Bhtml%3D1%3BwhiteSpace%3Dwrap%3Bconnectable%3D0%3BfillColor%3Dnone%3Btop%3D0%3Bleft%3D0%3Bbottom%3D0%3Bright%3D0%3Boverflow%3Dhidden%3B%22%20vertex%3D%221%22%20parent%3D%227%22%3E%3CmxGeometry%20x%3D%2290%22%20width%3D%2289%22%20height%3D%22118%22%20as%3D%22geometry%22%3E%3CmxRectangle%20width%3D%2289%22%20height%3D%22118%22%20as%3D%22alternateBounds%22%2F%3E%3C%2FmxGeometry%3E%3C%2FmxCell%3E%3CmxCell%20id%3D%2210%22%20value%3D%22%22%20style%3D%22shape%3DpartialRectangle%3Bhtml%3D1%3BwhiteSpace%3Dwrap%3Bconnectable%3D0%3BfillColor%3Dnone%3Btop%3D0%3Bleft%3D0%3Bbottom%3D0%3Bright%3D0%3Boverflow%3Dhidden%3B%22%20vertex%3D%221%22%20parent%3D%227%22%3E%3CmxGeometry%20x%3D%22179%22%20width%3D%2291%22%20height%3D%22118%22%20as%3D%22geometry%22%3E%3CmxRectangle%20width%3D%2291%22%20height%3D%22118%22%20as%3D%22alternateBounds%22%2F%3E%3C%2FmxGeometry%3E%3C%2FmxCell%3E%3CmxCell%20id%3D%2211%22%20value%3D%22%22%20style%3D%22shape%3DtableRow%3Bhorizontal%3D0%3BstartSize%3D0%3BswimlaneHead%3D0%3BswimlaneBody%3D0%3Btop%3D0%3Bleft%3D0%3Bbottom%3D0%3Bright%3D0%3Bcollapsible%3D0%3BdropTarget%3D0%3BfillColor%3Dnone%3Bpoints%3D%5B%5B0%2C0.5%5D%2C%5B1%2C0.5%5D%5D%3BportConstraint%3Deastwest%3B%22%20vertex%3D%221%22%20parent%3D%222%22%3E%3CmxGeometry%20y%3D%22235%22%20width%3D%22270%22%20height%3D%22117%22%20as%3D%22geometry%22%2F%3E%3C%2FmxCell%3E%3CmxCell%20id%3D%2212%22%20value%3D%22%22%20style%3D%22shape%3DpartialRectangle%3Bhtml%3D1%3BwhiteSpace%3Dwrap%3Bconnectable%3D0%3BfillColor%3Dnone%3Btop%3D0%3Bleft%3D0%3Bbottom%3D0%3Bright%3D0%3Boverflow%3Dhidden%3B%22%20vertex%3D%221%22%20parent%3D%2211%22%3E%3CmxGeometry%20width%3D%2290%22%20height%3D%22117%22%20as%3D%22geometry%22%3E%3CmxRectangle%20width%3D%2290%22%20height%3D%22117%22%20as%3D%22alternateBounds%22%2F%3E%3C%2FmxGeometry%3E%3C%2FmxCell%3E%3CmxCell%20id%3D%2213%22%20value%3D%22%22%20style%3D%22shape%3DpartialRectangle%3Bhtml%3D1%3BwhiteSpace%3Dwrap%3Bconnectable%3D0%3BfillColor%3Dnone%3Btop%3D0%3Bleft%3D0%3Bbottom%3D0%3Bright%3D0%3Boverflow%3Dhidden%3B%22%20vertex%3D%221%22%20parent%3D%2211%22%3E%3CmxGeometry%20x%3D%2290%22%20width%3D%2289%22%20height%3D%22117%22%20as%3D%22geometry%22%3E%3CmxRectangle%20width%3D%2289%22%20height%3D%22117%22%20as%3D%22alternateBounds%22%2F%3E%3C%2FmxGeometry%3E%3C%2FmxCell%3E%3CmxCell%20id%3D%2214%22%20value%3D%22%22%20style%3D%22shape%3DpartialRectangle%3Bhtml%3D1%3BwhiteSpace%3Dwrap%3Bconnectable%3D0%3BfillColor%3Dnone%3Btop%3D0%3Bleft%3D0%3Bbottom%3D0%3Bright%3D0%3Boverflow%3Dhidden%3BpointerEvents%3D1%3B%22%20vertex%3D%221%22%20parent%3D%2211%22%3E%3CmxGeometry%20x%3D%22179%22%20width%3D%2291%22%20height%3D%22117%22%20as%3D%22geometry%22%3E%3CmxRectangle%20width%3D%2291%22%20height%3D%22117%22%20as%3D%22alternateBounds%22%2F%3E%3C%2FmxGeometry%3E%3C%2FmxCell%3E%3C%2Froot%3E%3C%2FmxGraphModel%3E&lt;/span&gt;&lt;span style=&quot;color: rgba(0, 0, 0, 0); font-family: monospace; font-size: 0px; text-align: start;&quot;&gt;%3CmxGraphModel%3E%3Croot%3E%3CmxCell%20id%3D%220%22%2F%3E%3CmxCell%20id%3D%221%22%20parent%3D%220%22%2F%3E%3CmxCell%20id%3D%222%22%20value%3D%22%22%20style%3D%22shape%3Dtable%3Bhtml%3D1%3BwhiteSpace%3Dwrap%3BstartSize%3D0%3Bcontainer%3D1%3Bcollapsible%3D0%3BchildLayout%3DtableLayout%3B%22%20vertex%3D%221%22%20parent%3D%221%22%3E%3CmxGeometry%20x%3D%22578.5%22%20y%3D%22390%22%20width%3D%22270%22%20height%3D%22352%22%20as%3D%22geometry%22%2F%3E%3C%2FmxCell%3E%3CmxCell%20id%3D%223%22%20value%3D%22%22%20style%3D%22shape%3DtableRow%3Bhorizontal%3D0%3BstartSize%3D0%3BswimlaneHead%3D0%3BswimlaneBody%3D0%3Btop%3D0%3Bleft%3D0%3Bbottom%3D0%3Bright%3D0%3Bcollapsible%3D0%3BdropTarget%3D0%3BfillColor%3Dnone%3Bpoints%3D%5B%5B0%2C0.5%5D%2C%5B1%2C0.5%5D%5D%3BportConstraint%3Deastwest%3B%22%20vertex%3D%221%22%20parent%3D%222%22%3E%3CmxGeometry%20width%3D%22270%22%20height%3D%22117%22%20as%3D%22geometry%22%2F%3E%3C%2FmxCell%3E%3CmxCell%20id%3D%224%22%20value%3D%22%22%20style%3D%22shape%3DpartialRectangle%3Bhtml%3D1%3BwhiteSpace%3Dwrap%3Bconnectable%3D0%3BfillColor%3Dnone%3Btop%3D0%3Bleft%3D0%3Bbottom%3D0%3Bright%3D0%3Boverflow%3Dhidden%3B%22%20vertex%3D%221%22%20parent%3D%223%22%3E%3CmxGeometry%20width%3D%2290%22%20height%3D%22117%22%20as%3D%22geometry%22%3E%3CmxRectangle%20width%3D%2290%22%20height%3D%22117%22%20as%3D%22alternateBounds%22%2F%3E%3C%2FmxGeometry%3E%3C%2FmxCell%3E%3CmxCell%20id%3D%225%22%20value%3D%22%22%20style%3D%22shape%3DpartialRectangle%3Bhtml%3D1%3BwhiteSpace%3Dwrap%3Bconnectable%3D0%3BfillColor%3Dnone%3Btop%3D0%3Bleft%3D0%3Bbottom%3D0%3Bright%3D0%3Boverflow%3Dhidden%3B%22%20vertex%3D%221%22%20parent%3D%223%22%3E%3CmxGeometry%20x%3D%2290%22%20width%3D%2289%22%20height%3D%22117%22%20as%3D%22geometry%22%3E%3CmxRectangle%20width%3D%2289%22%20height%3D%22117%22%20as%3D%22alternateBounds%22%2F%3E%3C%2FmxGeometry%3E%3C%2FmxCell%3E%3CmxCell%20id%3D%226%22%20value%3D%22%22%20style%3D%22shape%3DpartialRectangle%3Bhtml%3D1%3BwhiteSpace%3Dwrap%3Bconnectable%3D0%3BfillColor%3Dnone%3Btop%3D0%3Bleft%3D0%3Bbottom%3D0%3Bright%3D0%3Boverflow%3Dhidden%3B%22%20vertex%3D%221%22%20parent%3D%223%22%3E%3CmxGeometry%20x%3D%22179%22%20width%3D%2291%22%20height%3D%22117%22%20as%3D%22geometry%22%3E%3CmxRectangle%20width%3D%2291%22%20height%3D%22117%22%20as%3D%22alternateBounds%22%2F%3E%3C%2FmxGeometry%3E%3C%2FmxCell%3E%3CmxCell%20id%3D%227%22%20value%3D%22%22%20style%3D%22shape%3DtableRow%3Bhorizontal%3D0%3BstartSize%3D0%3BswimlaneHead%3D0%3BswimlaneBody%3D0%3Btop%3D0%3Bleft%3D0%3Bbottom%3D0%3Bright%3D0%3Bcollapsible%3D0%3BdropTarget%3D0%3BfillColor%3Dnone%3Bpoints%3D%5B%5B0%2C0.5%5D%2C%5B1%2C0.5%5D%5D%3BportConstraint%3Deastwest%3B%22%20vertex%3D%221%22%20parent%3D%222%22%3E%3CmxGeometry%20y%3D%22117%22%20width%3D%22270%22%20height%3D%22118%22%20as%3D%22geometry%22%2F%3E%3C%2FmxCell%3E%3CmxCell%20id%3D%228%22%20value%3D%22%22%20style%3D%22shape%3DpartialRectangle%3Bhtml%3D1%3BwhiteSpace%3Dwrap%3Bconnectable%3D0%3BfillColor%3Dnone%3Btop%3D0%3Bleft%3D0%3Bbottom%3D0%3Bright%3D0%3Boverflow%3Dhidden%3B%22%20vertex%3D%221%22%20parent%3D%227%22%3E%3CmxGeometry%20width%3D%2290%22%20height%3D%22118%22%20as%3D%22geometry%22%3E%3CmxRectangle%20width%3D%2290%22%20height%3D%22118%22%20as%3D%22alternateBounds%22%2F%3E%3C%2FmxGeometry%3E%3C%2FmxCell%3E%3CmxCell%20id%3D%229%22%20value%3D%22%22%20style%3D%22shape%3DpartialRectangle%3Bhtml%3D1%3BwhiteSpace%3Dwrap%3Bconnectable%3D0%3BfillColor%3Dnone%3Btop%3D0%3Bleft%3D0%3Bbottom%3D0%3Bright%3D0%3Boverflow%3Dhidden%3B%22%20vertex%3D%221%22%20parent%3D%227%22%3E%3CmxGeometry%20x%3D%2290%22%20width%3D%2289%22%20height%3D%22118%22%20as%3D%22geometry%22%3E%3CmxRectangle%20width%3D%2289%22%20height%3D%22118%22%20as%3D%22alternateBounds%22%2F%3E%3C%2FmxGeometry%3E%3C%2FmxCell%3E%3CmxCell%20id%3D%2210%22%20value%3D%22%22%20style%3D%22shape%3DpartialRectangle%3Bhtml%3D1%3BwhiteSpace%3Dwrap%3Bconnectable%3D0%3BfillColor%3Dnone%3Btop%3D0%3Bleft%3D0%3Bbottom%3D0%3Bright%3D0%3Boverflow%3Dhidden%3B%22%20vertex%3D%221%22%20parent%3D%227%22%3E%3CmxGeometry%20x%3D%22179%22%20width%3D%2291%22%20height%3D%22118%22%20as%3D%22geometry%22%3E%3CmxRectangle%20width%3D%2291%22%20height%3D%22118%22%20as%3D%22alternateBounds%22%2F%3E%3C%2FmxGeometry%3E%3C%2FmxCell%3E%3CmxCell%20id%3D%2211%22%20value%3D%22%22%20style%3D%22shape%3DtableRow%3Bhorizontal%3D0%3BstartSize%3D0%3BswimlaneHead%3D0%3BswimlaneBody%3D0%3Btop%3D0%3Bleft%3D0%3Bbottom%3D0%3Bright%3D0%3Bcollapsible%3D0%3BdropTarget%3D0%3BfillColor%3Dnone%3Bpoints%3D%5B%5B0%2C0.5%5D%2C%5B1%2C0.5%5D%5D%3BportConstraint%3Deastwest%3B%22%20vertex%3D%221%22%20parent%3D%222%22%3E%3CmxGeometry%20y%3D%22235%22%20width%3D%22270%22%20height%3D%22117%22%20as%3D%22geometry%22%2F%3E%3C%2FmxCell%3E%3CmxCell%20id%3D%2212%22%20value%3D%22%22%20style%3D%22shape%3DpartialRectangle%3Bhtml%3D1%3BwhiteSpace%3Dwrap%3Bconnectable%3D0%3BfillColor%3Dnone%3Btop%3D0%3Bleft%3D0%3Bbottom%3D0%3Bright%3D0%3Boverflow%3Dhidden%3B%22%20vertex%3D%221%22%20parent%3D%2211%22%3E%3CmxGeometry%20width%3D%2290%22%20height%3D%22117%22%20as%3D%22geometry%22%3E%3CmxRectangle%20width%3D%2290%22%20height%3D%22117%22%20as%3D%22alternateBounds%22%2F%3E%3C%2FmxGeometry%3E%3C%2FmxCell%3E%3CmxCell%20id%3D%2213%22%20value%3D%22%22%20style%3D%22shape%3DpartialRectangle%3Bhtml%3D1%3BwhiteSpace%3Dwrap%3Bconnectable%3D0%3BfillColor%3Dnone%3Btop%3D0%3Bleft%3D0%3Bbottom%3D0%3Bright%3D0%3Boverflow%3Dhidden%3B%22%20vertex%3D%221%22%20parent%3D%2211%22%3E%3CmxGeometry%20x%3D%2290%22%20width%3D%2289%22%20height%3D%22117%22%20as%3D%22geometry%22%3E%3CmxRectangle%20width%3D%2289%22%20height%3D%22117%22%20as%3D%22alternateBounds%22%2F%3E%3C%2FmxGeometry%3E%3C%2FmxCell%3E%3CmxCell%20id%3D%2214%22%20value%3D%22%22%20style%3D%22shape%3DpartialRectangle%3Bhtml%3D1%3BwhiteSpace%3Dwrap%3Bconnectable%3D0%3BfillColor%3Dnone%3Btop%3D0%3Bleft%3D0%3Bbottom%3D0%3Bright%3D0%3Boverflow%3Dhidden%3BpointerEvents%3D1%3B%22%20vertex%3D%221%22%20parent%3D%2211%22%3E%3CmxGeometry%20x%3D%22179%22%20width%3D%2291%22%20height%3D%22117%22%20as%3D%22geometry%22%3E%3CmxRectangle%20width%3D%2291%22%20height%3D%22117%22%20as%3D%22alternateBounds%22%2F%3E%3C%2FmxGeometry%3E%3C%2FmxCell%3E%3C%2Froot%3E%3C%2FmxGraphModel%3E&lt;/span&gt;" style="text;strokeColor=none;align=center;fillColor=none;html=1;verticalAlign=middle;whiteSpace=wrap;rounded=0;rotation=-90;" vertex="1" parent="1">
                    <mxGeometry x="-10" y="560" width="60" height="30" as="geometry"/>
                </mxCell>
                <mxCell id="161" value="شنبه&lt;span style=&quot;color: rgba(0, 0, 0, 0); font-family: monospace; font-size: 0px; text-align: start;&quot;&gt;%3CmxGraphModel%3E%3Croot%3E%3CmxCell%20id%3D%220%22%2F%3E%3CmxCell%20id%3D%221%22%20parent%3D%220%22%2F%3E%3CmxCell%20id%3D%222%22%20value%3D%22%22%20style%3D%22shape%3Dtable%3Bhtml%3D1%3BwhiteSpace%3Dwrap%3BstartSize%3D0%3Bcontainer%3D1%3Bcollapsible%3D0%3BchildLayout%3DtableLayout%3B%22%20vertex%3D%221%22%20parent%3D%221%22%3E%3CmxGeometry%20x%3D%22578.5%22%20y%3D%22390%22%20width%3D%22270%22%20height%3D%22352%22%20as%3D%22geometry%22%2F%3E%3C%2FmxCell%3E%3CmxCell%20id%3D%223%22%20value%3D%22%22%20style%3D%22shape%3DtableRow%3Bhorizontal%3D0%3BstartSize%3D0%3BswimlaneHead%3D0%3BswimlaneBody%3D0%3Btop%3D0%3Bleft%3D0%3Bbottom%3D0%3Bright%3D0%3Bcollapsible%3D0%3BdropTarget%3D0%3BfillColor%3Dnone%3Bpoints%3D%5B%5B0%2C0.5%5D%2C%5B1%2C0.5%5D%5D%3BportConstraint%3Deastwest%3B%22%20vertex%3D%221%22%20parent%3D%222%22%3E%3CmxGeometry%20width%3D%22270%22%20height%3D%22117%22%20as%3D%22geometry%22%2F%3E%3C%2FmxCell%3E%3CmxCell%20id%3D%224%22%20value%3D%22%22%20style%3D%22shape%3DpartialRectangle%3Bhtml%3D1%3BwhiteSpace%3Dwrap%3Bconnectable%3D0%3BfillColor%3Dnone%3Btop%3D0%3Bleft%3D0%3Bbottom%3D0%3Bright%3D0%3Boverflow%3Dhidden%3B%22%20vertex%3D%221%22%20parent%3D%223%22%3E%3CmxGeometry%20width%3D%2290%22%20height%3D%22117%22%20as%3D%22geometry%22%3E%3CmxRectangle%20width%3D%2290%22%20height%3D%22117%22%20as%3D%22alternateBounds%22%2F%3E%3C%2FmxGeometry%3E%3C%2FmxCell%3E%3CmxCell%20id%3D%225%22%20value%3D%22%22%20style%3D%22shape%3DpartialRectangle%3Bhtml%3D1%3BwhiteSpace%3Dwrap%3Bconnectable%3D0%3BfillColor%3Dnone%3Btop%3D0%3Bleft%3D0%3Bbottom%3D0%3Bright%3D0%3Boverflow%3Dhidden%3B%22%20vertex%3D%221%22%20parent%3D%223%22%3E%3CmxGeometry%20x%3D%2290%22%20width%3D%2289%22%20height%3D%22117%22%20as%3D%22geometry%22%3E%3CmxRectangle%20width%3D%2289%22%20height%3D%22117%22%20as%3D%22alternateBounds%22%2F%3E%3C%2FmxGeometry%3E%3C%2FmxCell%3E%3CmxCell%20id%3D%226%22%20value%3D%22%22%20style%3D%22shape%3DpartialRectangle%3Bhtml%3D1%3BwhiteSpace%3Dwrap%3Bconnectable%3D0%3BfillColor%3Dnone%3Btop%3D0%3Bleft%3D0%3Bbottom%3D0%3Bright%3D0%3Boverflow%3Dhidden%3B%22%20vertex%3D%221%22%20parent%3D%223%22%3E%3CmxGeometry%20x%3D%22179%22%20width%3D%2291%22%20height%3D%22117%22%20as%3D%22geometry%22%3E%3CmxRectangle%20width%3D%2291%22%20height%3D%22117%22%20as%3D%22alternateBounds%22%2F%3E%3C%2FmxGeometry%3E%3C%2FmxCell%3E%3CmxCell%20id%3D%227%22%20value%3D%22%22%20style%3D%22shape%3DtableRow%3Bhorizontal%3D0%3BstartSize%3D0%3BswimlaneHead%3D0%3BswimlaneBody%3D0%3Btop%3D0%3Bleft%3D0%3Bbottom%3D0%3Bright%3D0%3Bcollapsible%3D0%3BdropTarget%3D0%3BfillColor%3Dnone%3Bpoints%3D%5B%5B0%2C0.5%5D%2C%5B1%2C0.5%5D%5D%3BportConstraint%3Deastwest%3B%22%20vertex%3D%221%22%20parent%3D%222%22%3E%3CmxGeometry%20y%3D%22117%22%20width%3D%22270%22%20height%3D%22118%22%20as%3D%22geometry%22%2F%3E%3C%2FmxCell%3E%3CmxCell%20id%3D%228%22%20value%3D%22%22%20style%3D%22shape%3DpartialRectangle%3Bhtml%3D1%3BwhiteSpace%3Dwrap%3Bconnectable%3D0%3BfillColor%3Dnone%3Btop%3D0%3Bleft%3D0%3Bbottom%3D0%3Bright%3D0%3Boverflow%3Dhidden%3B%22%20vertex%3D%221%22%20parent%3D%227%22%3E%3CmxGeometry%20width%3D%2290%22%20height%3D%22118%22%20as%3D%22geometry%22%3E%3CmxRectangle%20width%3D%2290%22%20height%3D%22118%22%20as%3D%22alternateBounds%22%2F%3E%3C%2FmxGeometry%3E%3C%2FmxCell%3E%3CmxCell%20id%3D%229%22%20value%3D%22%22%20style%3D%22shape%3DpartialRectangle%3Bhtml%3D1%3BwhiteSpace%3Dwrap%3Bconnectable%3D0%3BfillColor%3Dnone%3Btop%3D0%3Bleft%3D0%3Bbottom%3D0%3Bright%3D0%3Boverflow%3Dhidden%3B%22%20vertex%3D%221%22%20parent%3D%227%22%3E%3CmxGeometry%20x%3D%2290%22%20width%3D%2289%22%20height%3D%22118%22%20as%3D%22geometry%22%3E%3CmxRectangle%20width%3D%2289%22%20height%3D%22118%22%20as%3D%22alternateBounds%22%2F%3E%3C%2FmxGeometry%3E%3C%2FmxCell%3E%3CmxCell%20id%3D%2210%22%20value%3D%22%22%20style%3D%22shape%3DpartialRectangle%3Bhtml%3D1%3BwhiteSpace%3Dwrap%3Bconnectable%3D0%3BfillColor%3Dnone%3Btop%3D0%3Bleft%3D0%3Bbottom%3D0%3Bright%3D0%3Boverflow%3Dhidden%3B%22%20vertex%3D%221%22%20parent%3D%227%22%3E%3CmxGeometry%20x%3D%22179%22%20width%3D%2291%22%20height%3D%22118%22%20as%3D%22geometry%22%3E%3CmxRectangle%20width%3D%2291%22%20height%3D%22118%22%20as%3D%22alternateBounds%22%2F%3E%3C%2FmxGeometry%3E%3C%2FmxCell%3E%3CmxCell%20id%3D%2211%22%20value%3D%22%22%20style%3D%22shape%3DtableRow%3Bhorizontal%3D0%3BstartSize%3D0%3BswimlaneHead%3D0%3BswimlaneBody%3D0%3Btop%3D0%3Bleft%3D0%3Bbottom%3D0%3Bright%3D0%3Bcollapsible%3D0%3BdropTarget%3D0%3BfillColor%3Dnone%3Bpoints%3D%5B%5B0%2C0.5%5D%2C%5B1%2C0.5%5D%5D%3BportConstraint%3Deastwest%3B%22%20vertex%3D%221%22%20parent%3D%222%22%3E%3CmxGeometry%20y%3D%22235%22%20width%3D%22270%22%20height%3D%22117%22%20as%3D%22geometry%22%2F%3E%3C%2FmxCell%3E%3CmxCell%20id%3D%2212%22%20value%3D%22%22%20style%3D%22shape%3DpartialRectangle%3Bhtml%3D1%3BwhiteSpace%3Dwrap%3Bconnectable%3D0%3BfillColor%3Dnone%3Btop%3D0%3Bleft%3D0%3Bbottom%3D0%3Bright%3D0%3Boverflow%3Dhidden%3B%22%20vertex%3D%221%22%20parent%3D%2211%22%3E%3CmxGeometry%20width%3D%2290%22%20height%3D%22117%22%20as%3D%22geometry%22%3E%3CmxRectangle%20width%3D%2290%22%20height%3D%22117%22%20as%3D%22alternateBounds%22%2F%3E%3C%2FmxGeometry%3E%3C%2FmxCell%3E%3CmxCell%20id%3D%2213%22%20value%3D%22%22%20style%3D%22shape%3DpartialRectangle%3Bhtml%3D1%3BwhiteSpace%3Dwrap%3Bconnectable%3D0%3BfillColor%3Dnone%3Btop%3D0%3Bleft%3D0%3Bbottom%3D0%3Bright%3D0%3Boverflow%3Dhidden%3B%22%20vertex%3D%221%22%20parent%3D%2211%22%3E%3CmxGeometry%20x%3D%2290%22%20width%3D%2289%22%20height%3D%22117%22%20as%3D%22geometry%22%3E%3CmxRectangle%20width%3D%2289%22%20height%3D%22117%22%20as%3D%22alternateBounds%22%2F%3E%3C%2FmxGeometry%3E%3C%2FmxCell%3E%3CmxCell%20id%3D%2214%22%20value%3D%22%22%20style%3D%22shape%3DpartialRectangle%3Bhtml%3D1%3BwhiteSpace%3Dwrap%3Bconnectable%3D0%3BfillColor%3Dnone%3Btop%3D0%3Bleft%3D0%3Bbottom%3D0%3Bright%3D0%3Boverflow%3Dhidden%3BpointerEvents%3D1%3B%22%20vertex%3D%221%22%20parent%3D%2211%22%3E%3CmxGeometry%20x%3D%22179%22%20width%3D%2291%22%20height%3D%22117%22%20as%3D%22geometry%22%3E%3CmxRectangle%20width%3D%2291%22%20height%3D%22117%22%20as%3D%22alternateBounds%22%2F%3E%3C%2FmxGeometry%3E%3C%2FmxCell%3E%3C%2Froot%3E%3C%2FmxGraphModel%3E&lt;/span&gt;&lt;span style=&quot;color: rgba(0, 0, 0, 0); font-family: monospace; font-size: 0px; text-align: start;&quot;&gt;%3CmxGraphModel%3E%3Croot%3E%3CmxCell%20id%3D%220%22%2F%3E%3CmxCell%20id%3D%221%22%20parent%3D%220%22%2F%3E%3CmxCell%20id%3D%222%22%20value%3D%22%22%20style%3D%22shape%3Dtable%3Bhtml%3D1%3BwhiteSpace%3Dwrap%3BstartSize%3D0%3Bcontainer%3D1%3Bcollapsible%3D0%3BchildLayout%3DtableLayout%3B%22%20vertex%3D%221%22%20parent%3D%221%22%3E%3CmxGeometry%20x%3D%22578.5%22%20y%3D%22390%22%20width%3D%22270%22%20height%3D%22352%22%20as%3D%22geometry%22%2F%3E%3C%2FmxCell%3E%3CmxCell%20id%3D%223%22%20value%3D%22%22%20style%3D%22shape%3DtableRow%3Bhorizontal%3D0%3BstartSize%3D0%3BswimlaneHead%3D0%3BswimlaneBody%3D0%3Btop%3D0%3Bleft%3D0%3Bbottom%3D0%3Bright%3D0%3Bcollapsible%3D0%3BdropTarget%3D0%3BfillColor%3Dnone%3Bpoints%3D%5B%5B0%2C0.5%5D%2C%5B1%2C0.5%5D%5D%3BportConstraint%3Deastwest%3B%22%20vertex%3D%221%22%20parent%3D%222%22%3E%3CmxGeometry%20width%3D%22270%22%20height%3D%22117%22%20as%3D%22geometry%22%2F%3E%3C%2FmxCell%3E%3CmxCell%20id%3D%224%22%20value%3D%22%22%20style%3D%22shape%3DpartialRectangle%3Bhtml%3D1%3BwhiteSpace%3Dwrap%3Bconnectable%3D0%3BfillColor%3Dnone%3Btop%3D0%3Bleft%3D0%3Bbottom%3D0%3Bright%3D0%3Boverflow%3Dhidden%3B%22%20vertex%3D%221%22%20parent%3D%223%22%3E%3CmxGeometry%20width%3D%2290%22%20height%3D%22117%22%20as%3D%22geometry%22%3E%3CmxRectangle%20width%3D%2290%22%20height%3D%22117%22%20as%3D%22alternateBounds%22%2F%3E%3C%2FmxGeometry%3E%3C%2FmxCell%3E%3CmxCell%20id%3D%225%22%20value%3D%22%22%20style%3D%22shape%3DpartialRectangle%3Bhtml%3D1%3BwhiteSpace%3Dwrap%3Bconnectable%3D0%3BfillColor%3Dnone%3Btop%3D0%3Bleft%3D0%3Bbottom%3D0%3Bright%3D0%3Boverflow%3Dhidden%3B%22%20vertex%3D%221%22%20parent%3D%223%22%3E%3CmxGeometry%20x%3D%2290%22%20width%3D%2289%22%20height%3D%22117%22%20as%3D%22geometry%22%3E%3CmxRectangle%20width%3D%2289%22%20height%3D%22117%22%20as%3D%22alternateBounds%22%2F%3E%3C%2FmxGeometry%3E%3C%2FmxCell%3E%3CmxCell%20id%3D%226%22%20value%3D%22%22%20style%3D%22shape%3DpartialRectangle%3Bhtml%3D1%3BwhiteSpace%3Dwrap%3Bconnectable%3D0%3BfillColor%3Dnone%3Btop%3D0%3Bleft%3D0%3Bbottom%3D0%3Bright%3D0%3Boverflow%3Dhidden%3B%22%20vertex%3D%221%22%20parent%3D%223%22%3E%3CmxGeometry%20x%3D%22179%22%20width%3D%2291%22%20height%3D%22117%22%20as%3D%22geometry%22%3E%3CmxRectangle%20width%3D%2291%22%20height%3D%22117%22%20as%3D%22alternateBounds%22%2F%3E%3C%2FmxGeometry%3E%3C%2FmxCell%3E%3CmxCell%20id%3D%227%22%20value%3D%22%22%20style%3D%22shape%3DtableRow%3Bhorizontal%3D0%3BstartSize%3D0%3BswimlaneHead%3D0%3BswimlaneBody%3D0%3Btop%3D0%3Bleft%3D0%3Bbottom%3D0%3Bright%3D0%3Bcollapsible%3D0%3BdropTarget%3D0%3BfillColor%3Dnone%3Bpoints%3D%5B%5B0%2C0.5%5D%2C%5B1%2C0.5%5D%5D%3BportConstraint%3Deastwest%3B%22%20vertex%3D%221%22%20parent%3D%222%22%3E%3CmxGeometry%20y%3D%22117%22%20width%3D%22270%22%20height%3D%22118%22%20as%3D%22geometry%22%2F%3E%3C%2FmxCell%3E%3CmxCell%20id%3D%228%22%20value%3D%22%22%20style%3D%22shape%3DpartialRectangle%3Bhtml%3D1%3BwhiteSpace%3Dwrap%3Bconnectable%3D0%3BfillColor%3Dnone%3Btop%3D0%3Bleft%3D0%3Bbottom%3D0%3Bright%3D0%3Boverflow%3Dhidden%3B%22%20vertex%3D%221%22%20parent%3D%227%22%3E%3CmxGeometry%20width%3D%2290%22%20height%3D%22118%22%20as%3D%22geometry%22%3E%3CmxRectangle%20width%3D%2290%22%20height%3D%22118%22%20as%3D%22alternateBounds%22%2F%3E%3C%2FmxGeometry%3E%3C%2FmxCell%3E%3CmxCell%20id%3D%229%22%20value%3D%22%22%20style%3D%22shape%3DpartialRectangle%3Bhtml%3D1%3BwhiteSpace%3Dwrap%3Bconnectable%3D0%3BfillColor%3Dnone%3Btop%3D0%3Bleft%3D0%3Bbottom%3D0%3Bright%3D0%3Boverflow%3Dhidden%3B%22%20vertex%3D%221%22%20parent%3D%227%22%3E%3CmxGeometry%20x%3D%2290%22%20width%3D%2289%22%20height%3D%22118%22%20as%3D%22geometry%22%3E%3CmxRectangle%20width%3D%2289%22%20height%3D%22118%22%20as%3D%22alternateBounds%22%2F%3E%3C%2FmxGeometry%3E%3C%2FmxCell%3E%3CmxCell%20id%3D%2210%22%20value%3D%22%22%20style%3D%22shape%3DpartialRectangle%3Bhtml%3D1%3BwhiteSpace%3Dwrap%3Bconnectable%3D0%3BfillColor%3Dnone%3Btop%3D0%3Bleft%3D0%3Bbottom%3D0%3Bright%3D0%3Boverflow%3Dhidden%3B%22%20vertex%3D%221%22%20parent%3D%227%22%3E%3CmxGeometry%20x%3D%22179%22%20width%3D%2291%22%20height%3D%22118%22%20as%3D%22geometry%22%3E%3CmxRectangle%20width%3D%2291%22%20height%3D%22118%22%20as%3D%22alternateBounds%22%2F%3E%3C%2FmxGeometry%3E%3C%2FmxCell%3E%3CmxCell%20id%3D%2211%22%20value%3D%22%22%20style%3D%22shape%3DtableRow%3Bhorizontal%3D0%3BstartSize%3D0%3BswimlaneHead%3D0%3BswimlaneBody%3D0%3Btop%3D0%3Bleft%3D0%3Bbottom%3D0%3Bright%3D0%3Bcollapsible%3D0%3BdropTarget%3D0%3BfillColor%3Dnone%3Bpoints%3D%5B%5B0%2C0.5%5D%2C%5B1%2C0.5%5D%5D%3BportConstraint%3Deastwest%3B%22%20vertex%3D%221%22%20parent%3D%222%22%3E%3CmxGeometry%20y%3D%22235%22%20width%3D%22270%22%20height%3D%22117%22%20as%3D%22geometry%22%2F%3E%3C%2FmxCell%3E%3CmxCell%20id%3D%2212%22%20value%3D%22%22%20style%3D%22shape%3DpartialRectangle%3Bhtml%3D1%3BwhiteSpace%3Dwrap%3Bconnectable%3D0%3BfillColor%3Dnone%3Btop%3D0%3Bleft%3D0%3Bbottom%3D0%3Bright%3D0%3Boverflow%3Dhidden%3B%22%20vertex%3D%221%22%20parent%3D%2211%22%3E%3CmxGeometry%20width%3D%2290%22%20height%3D%22117%22%20as%3D%22geometry%22%3E%3CmxRectangle%20width%3D%2290%22%20height%3D%22117%22%20as%3D%22alternateBounds%22%2F%3E%3C%2FmxGeometry%3E%3C%2FmxCell%3E%3CmxCell%20id%3D%2213%22%20value%3D%22%22%20style%3D%22shape%3DpartialRectangle%3Bhtml%3D1%3BwhiteSpace%3Dwrap%3Bconnectable%3D0%3BfillColor%3Dnone%3Btop%3D0%3Bleft%3D0%3Bbottom%3D0%3Bright%3D0%3Boverflow%3Dhidden%3B%22%20vertex%3D%221%22%20parent%3D%2211%22%3E%3CmxGeometry%20x%3D%2290%22%20width%3D%2289%22%20height%3D%22117%22%20as%3D%22geometry%22%3E%3CmxRectangle%20width%3D%2289%22%20height%3D%22117%22%20as%3D%22alternateBounds%22%2F%3E%3C%2FmxGeometry%3E%3C%2FmxCell%3E%3CmxCell%20id%3D%2214%22%20value%3D%22%22%20style%3D%22shape%3DpartialRectangle%3Bhtml%3D1%3BwhiteSpace%3Dwrap%3Bconnectable%3D0%3BfillColor%3Dnone%3Btop%3D0%3Bleft%3D0%3Bbottom%3D0%3Bright%3D0%3Boverflow%3Dhidden%3BpointerEvents%3D1%3B%22%20vertex%3D%221%22%20parent%3D%2211%22%3E%3CmxGeometry%20x%3D%22179%22%20width%3D%2291%22%20height%3D%22117%22%20as%3D%22geometry%22%3E%3CmxRectangle%20width%3D%2291%22%20height%3D%22117%22%20as%3D%22alternateBounds%22%2F%3E%3C%2FmxGeometry%3E%3C%2FmxCell%3E%3C%2Froot%3E%3C%2FmxGraphModel%3E&lt;/span&gt;&lt;span style=&quot;color: rgba(0, 0, 0, 0); font-family: monospace; font-size: 0px; text-align: start;&quot;&gt;%3CmxGraphModel%3E%3Croot%3E%3CmxCell%20id%3D%220%22%2F%3E%3CmxCell%20id%3D%221%22%20parent%3D%220%22%2F%3E%3CmxCell%20id%3D%222%22%20value%3D%22%22%20style%3D%22shape%3Dtable%3Bhtml%3D1%3BwhiteSpace%3Dwrap%3BstartSize%3D0%3Bcontainer%3D1%3Bcollapsible%3D0%3BchildLayout%3DtableLayout%3B%22%20vertex%3D%221%22%20parent%3D%221%22%3E%3CmxGeometry%20x%3D%22578.5%22%20y%3D%22390%22%20width%3D%22270%22%20height%3D%22352%22%20as%3D%22geometry%22%2F%3E%3C%2FmxCell%3E%3CmxCell%20id%3D%223%22%20value%3D%22%22%20style%3D%22shape%3DtableRow%3Bhorizontal%3D0%3BstartSize%3D0%3BswimlaneHead%3D0%3BswimlaneBody%3D0%3Btop%3D0%3Bleft%3D0%3Bbottom%3D0%3Bright%3D0%3Bcollapsible%3D0%3BdropTarget%3D0%3BfillColor%3Dnone%3Bpoints%3D%5B%5B0%2C0.5%5D%2C%5B1%2C0.5%5D%5D%3BportConstraint%3Deastwest%3B%22%20vertex%3D%221%22%20parent%3D%222%22%3E%3CmxGeometry%20width%3D%22270%22%20height%3D%22117%22%20as%3D%22geometry%22%2F%3E%3C%2FmxCell%3E%3CmxCell%20id%3D%224%22%20value%3D%22%22%20style%3D%22shape%3DpartialRectangle%3Bhtml%3D1%3BwhiteSpace%3Dwrap%3Bconnectable%3D0%3BfillColor%3Dnone%3Btop%3D0%3Bleft%3D0%3Bbottom%3D0%3Bright%3D0%3Boverflow%3Dhidden%3B%22%20vertex%3D%221%22%20parent%3D%223%22%3E%3CmxGeometry%20width%3D%2290%22%20height%3D%22117%22%20as%3D%22geometry%22%3E%3CmxRectangle%20width%3D%2290%22%20height%3D%22117%22%20as%3D%22alternateBounds%22%2F%3E%3C%2FmxGeometry%3E%3C%2FmxCell%3E%3CmxCell%20id%3D%225%22%20value%3D%22%22%20style%3D%22shape%3DpartialRectangle%3Bhtml%3D1%3BwhiteSpace%3Dwrap%3Bconnectable%3D0%3BfillColor%3Dnone%3Btop%3D0%3Bleft%3D0%3Bbottom%3D0%3Bright%3D0%3Boverflow%3Dhidden%3B%22%20vertex%3D%221%22%20parent%3D%223%22%3E%3CmxGeometry%20x%3D%2290%22%20width%3D%2289%22%20height%3D%22117%22%20as%3D%22geometry%22%3E%3CmxRectangle%20width%3D%2289%22%20height%3D%22117%22%20as%3D%22alternateBounds%22%2F%3E%3C%2FmxGeometry%3E%3C%2FmxCell%3E%3CmxCell%20id%3D%226%22%20value%3D%22%22%20style%3D%22shape%3DpartialRectangle%3Bhtml%3D1%3BwhiteSpace%3Dwrap%3Bconnectable%3D0%3BfillColor%3Dnone%3Btop%3D0%3Bleft%3D0%3Bbottom%3D0%3Bright%3D0%3Boverflow%3Dhidden%3B%22%20vertex%3D%221%22%20parent%3D%223%22%3E%3CmxGeometry%20x%3D%22179%22%20width%3D%2291%22%20height%3D%22117%22%20as%3D%22geometry%22%3E%3CmxRectangle%20width%3D%2291%22%20height%3D%22117%22%20as%3D%22alternateBounds%22%2F%3E%3C%2FmxGeometry%3E%3C%2FmxCell%3E%3CmxCell%20id%3D%227%22%20value%3D%22%22%20style%3D%22shape%3DtableRow%3Bhorizontal%3D0%3BstartSize%3D0%3BswimlaneHead%3D0%3BswimlaneBody%3D0%3Btop%3D0%3Bleft%3D0%3Bbottom%3D0%3Bright%3D0%3Bcollapsible%3D0%3BdropTarget%3D0%3BfillColor%3Dnone%3Bpoints%3D%5B%5B0%2C0.5%5D%2C%5B1%2C0.5%5D%5D%3BportConstraint%3Deastwest%3B%22%20vertex%3D%221%22%20parent%3D%222%22%3E%3CmxGeometry%20y%3D%22117%22%20width%3D%22270%22%20height%3D%22118%22%20as%3D%22geometry%22%2F%3E%3C%2FmxCell%3E%3CmxCell%20id%3D%228%22%20value%3D%22%22%20style%3D%22shape%3DpartialRectangle%3Bhtml%3D1%3BwhiteSpace%3Dwrap%3Bconnectable%3D0%3BfillColor%3Dnone%3Btop%3D0%3Bleft%3D0%3Bbottom%3D0%3Bright%3D0%3Boverflow%3Dhidden%3B%22%20vertex%3D%221%22%20parent%3D%227%22%3E%3CmxGeometry%20width%3D%2290%22%20height%3D%22118%22%20as%3D%22geometry%22%3E%3CmxRectangle%20width%3D%2290%22%20height%3D%22118%22%20as%3D%22alternateBounds%22%2F%3E%3C%2FmxGeometry%3E%3C%2FmxCell%3E%3CmxCell%20id%3D%229%22%20value%3D%22%22%20style%3D%22shape%3DpartialRectangle%3Bhtml%3D1%3BwhiteSpace%3Dwrap%3Bconnectable%3D0%3BfillColor%3Dnone%3Btop%3D0%3Bleft%3D0%3Bbottom%3D0%3Bright%3D0%3Boverflow%3Dhidden%3B%22%20vertex%3D%221%22%20parent%3D%227%22%3E%3CmxGeometry%20x%3D%2290%22%20width%3D%2289%22%20height%3D%22118%22%20as%3D%22geometry%22%3E%3CmxRectangle%20width%3D%2289%22%20height%3D%22118%22%20as%3D%22alternateBounds%22%2F%3E%3C%2FmxGeometry%3E%3C%2FmxCell%3E%3CmxCell%20id%3D%2210%22%20value%3D%22%22%20style%3D%22shape%3DpartialRectangle%3Bhtml%3D1%3BwhiteSpace%3Dwrap%3Bconnectable%3D0%3BfillColor%3Dnone%3Btop%3D0%3Bleft%3D0%3Bbottom%3D0%3Bright%3D0%3Boverflow%3Dhidden%3B%22%20vertex%3D%221%22%20parent%3D%227%22%3E%3CmxGeometry%20x%3D%22179%22%20width%3D%2291%22%20height%3D%22118%22%20as%3D%22geometry%22%3E%3CmxRectangle%20width%3D%2291%22%20height%3D%22118%22%20as%3D%22alternateBounds%22%2F%3E%3C%2FmxGeometry%3E%3C%2FmxCell%3E%3CmxCell%20id%3D%2211%22%20value%3D%22%22%20style%3D%22shape%3DtableRow%3Bhorizontal%3D0%3BstartSize%3D0%3BswimlaneHead%3D0%3BswimlaneBody%3D0%3Btop%3D0%3Bleft%3D0%3Bbottom%3D0%3Bright%3D0%3Bcollapsible%3D0%3BdropTarget%3D0%3BfillColor%3Dnone%3Bpoints%3D%5B%5B0%2C0.5%5D%2C%5B1%2C0.5%5D%5D%3BportConstraint%3Deastwest%3B%22%20vertex%3D%221%22%20parent%3D%222%22%3E%3CmxGeometry%20y%3D%22235%22%20width%3D%22270%22%20height%3D%22117%22%20as%3D%22geometry%22%2F%3E%3C%2FmxCell%3E%3CmxCell%20id%3D%2212%22%20value%3D%22%22%20style%3D%22shape%3DpartialRectangle%3Bhtml%3D1%3BwhiteSpace%3Dwrap%3Bconnectable%3D0%3BfillColor%3Dnone%3Btop%3D0%3Bleft%3D0%3Bbottom%3D0%3Bright%3D0%3Boverflow%3Dhidden%3B%22%20vertex%3D%221%22%20parent%3D%2211%22%3E%3CmxGeometry%20width%3D%2290%22%20height%3D%22117%22%20as%3D%22geometry%22%3E%3CmxRectangle%20width%3D%2290%22%20height%3D%22117%22%20as%3D%22alternateBounds%22%2F%3E%3C%2FmxGeometry%3E%3C%2FmxCell%3E%3CmxCell%20id%3D%2213%22%20value%3D%22%22%20style%3D%22shape%3DpartialRectangle%3Bhtml%3D1%3BwhiteSpace%3Dwrap%3Bconnectable%3D0%3BfillColor%3Dnone%3Btop%3D0%3Bleft%3D0%3Bbottom%3D0%3Bright%3D0%3Boverflow%3Dhidden%3B%22%20vertex%3D%221%22%20parent%3D%2211%22%3E%3CmxGeometry%20x%3D%2290%22%20width%3D%2289%22%20height%3D%22117%22%20as%3D%22geometry%22%3E%3CmxRectangle%20width%3D%2289%22%20height%3D%22117%22%20as%3D%22alternateBounds%22%2F%3E%3C%2FmxGeometry%3E%3C%2FmxCell%3E%3CmxCell%20id%3D%2214%22%20value%3D%22%22%20style%3D%22shape%3DpartialRectangle%3Bhtml%3D1%3BwhiteSpace%3Dwrap%3Bconnectable%3D0%3BfillColor%3Dnone%3Btop%3D0%3Bleft%3D0%3Bbottom%3D0%3Bright%3D0%3Boverflow%3Dhidden%3BpointerEvents%3D1%3B%22%20vertex%3D%221%22%20parent%3D%2211%22%3E%3CmxGeometry%20x%3D%22179%22%20width%3D%2291%22%20height%3D%22117%22%20as%3D%22geometry%22%3E%3CmxRectangle%20width%3D%2291%22%20height%3D%22117%22%20as%3D%22alternateBounds%22%2F%3E%3C%2FmxGeometry%3E%3C%2FmxCell%3E%3C%2Froot%3E%3C%2FmxGraphModel%3E&lt;/span&gt;" style="text;strokeColor=none;align=center;fillColor=none;html=1;verticalAlign=middle;whiteSpace=wrap;rounded=0;rotation=-90;" vertex="1" parent="1">
                    <mxGeometry x="-10" y="909" width="60" height="30" as="geometry"/>
                </mxCell>
            </root>
        </mxGraphModel>
    </diagram>
</mxfile>